<svg id="Layer_1" height="512" viewBox="0 0 128 128" width="512" xmlns="http://www.w3.org/2000/svg" data-name="Layer 1"><path d="m36.734 24.052h6.701v41.26h-6.701z" fill="#b95529" transform="matrix(-.799 .601 -.601 -.799 98.976 56.305)"/><path d="m27.308 27.821 25.138 33.378 2.715-2.041-25.098-33.408z" fill="#e76a36"/><path d="m63.041 95.156c3.972 3.145 10.032 2.933 14.612-.51s6.466-9.207 4.547-13.9l-10.578-25.846a2.8 2.8 0 0 0 -4.273-1.177l-26.149 19.661a2.8 2.8 0 0 0 -.055 4.432z" fill="#cae7f7"/><path d="m82.2 80.75-10.578-25.85a2.8 2.8 0 0 0 -4.273-1.177l-13.111 9.854 23.415 31.068c4.579-3.445 6.465-9.206 4.547-13.895z" fill="#e5ffff"/><path d="m102.773 103.631a12.347 12.347 0 0 0 -3.224.439 12.483 12.483 0 0 0 -12.4-14.53c-.277 0-.547.024-.82.041a17.988 17.988 0 0 0 -32.952-3.237c-.358-.031-.718-.055-1.084-.055a12.557 12.557 0 0 0 -12.513 11.621 9.239 9.239 0 0 0 -10.227 5.731c-.062 0-.122-.009-.185-.009a12.369 12.369 0 0 0 -12.368 12.368h98.143a12.369 12.369 0 0 0 -12.37-12.369z" fill="#e76a36"/><path d="m87.153 89.541c-.277 0-.547.024-.82.041a17.978 17.978 0 0 0 -22.333-11.845v38.263h51.142a12.331 12.331 0 0 0 -15.593-11.93 12.483 12.483 0 0 0 -12.4-14.53z" fill="#b95529"/><path d="m51.869 59.739h9.803v14.271h-9.803z" fill="#fcbe00" transform="matrix(-.799 .601 -.601 -.799 142.336 86.206)"/><path d="m25.567 32.7a1.749 1.749 0 0 1 -.753-.17l-11.582-5.53a3.729 3.729 0 0 1 -.635-6.345l12.04-9.055a3.728 3.728 0 0 1 5.919 2.373l2.093 12.66a1.751 1.751 0 0 1 -.675 1.685l-5.356 4.027a1.752 1.752 0 0 1 -1.051.355zm1.306-18.346a.217.217 0 0 0 -.133.048l-12.04 9.055a.228.228 0 0 0 .039.388l10.625 5.069 3.661-2.752-1.925-11.614a.212.212 0 0 0 -.14-.175.235.235 0 0 0 -.087-.019z" fill="#00465f"/><rect fill="#fcbe00" height="6.019" rx="3.009" transform="matrix(-.799 .601 -.601 -.799 45.924 19.722)" width="13.34" x="12.999" y="14.521"/><path d="m49.125 101.943a1.75 1.75 0 0 1 -1.75-1.75 7.952 7.952 0 0 1 7.943-7.943 1.75 1.75 0 0 1 0 3.5 4.448 4.448 0 0 0 -4.443 4.443 1.75 1.75 0 0 1 -1.75 1.75z" fill="#b95529"/><path d="m76.432 90.9a1.75 1.75 0 0 1 -1.74-1.584 2.586 2.586 0 0 0 -2.816-2.327 1.75 1.75 0 0 1 -.331-3.484 6.083 6.083 0 0 1 6.632 5.48 1.75 1.75 0 0 1 -1.577 1.909c-.056.006-.113.006-.168.006z" fill="#e76a36"/><path d="m52.446 61.199 8.589 11.397 3.942-2.965-8.576-11.406z" fill="#ffd92d"/><path d="m21.394 20 3.006-2.264a3.009 3.009 0 0 0 .6-4.214 3.009 3.009 0 0 0 -4.214-.6l-3.014 2.266z" fill="#ffd92d"/><g fill="#790000"><path d="m11.127 24.01a3.7 3.7 0 0 0 2.104 2.99l11.582 5.53a1.751 1.751 0 0 0 1.805-.181l3.957-2.976 19.367 25.756a1.75 1.75 0 1 0 2.8-2.1l-20.163-26.815-2.023-12.237a3.721 3.721 0 0 0 -5.211-2.786 3.829 3.829 0 0 0 -4.864-.228l-7.348 5.525a3.826 3.826 0 0 0 -1.133 4.736 3.691 3.691 0 0 0 -.873 2.786zm17.9 2.152-3.661 2.752-8.535-4.072a3.79 3.79 0 0 0 2.027-.745l7.342-5.525a3.8 3.8 0 0 0 1.279-1.731zm-13.789-6.876 7.347-5.525a.322.322 0 0 1 .453.064l1.125 1.5a.323.323 0 0 1 -.064.453l-7.347 5.522a.323.323 0 0 1 -.453-.064l-.562-.747-.562-.748a.324.324 0 0 1 .063-.455z"/><path d="m50.875 100.193a4.448 4.448 0 0 1 4.443-4.443 1.75 1.75 0 1 0 0-3.5 7.952 7.952 0 0 0 -7.943 7.943 1.75 1.75 0 1 0 3.5 0z"/><path d="m74.692 89.317a1.75 1.75 0 0 0 1.74 1.584c.055 0 .111 0 .167-.008a1.75 1.75 0 0 0 1.577-1.908 6.083 6.083 0 0 0 -6.632-5.48 1.75 1.75 0 0 0 .331 3.484 2.586 2.586 0 0 1 2.817 2.328z"/><path d="m116.8 114.453a14.136 14.136 0 0 0 -14.03-12.573q-.649 0-1.306.064a14.332 14.332 0 0 0 -13.902-14.144 19.731 19.731 0 0 0 -3.072-5.3 11.72 11.72 0 0 0 -.67-2.415l-10.578-25.852a4.549 4.549 0 0 0 -6.942-1.913l-3.935 2.958a1.75 1.75 0 0 0 2.1 2.8l3.935-2.961a1.049 1.049 0 0 1 1.6.441l9.146 22.354a19.782 19.782 0 0 0 -26.724 6.605l-10.2-8.074a1.049 1.049 0 0 1 .021-1.661l7.76-5.835 5.735 7.627a1.751 1.751 0 0 0 2.451.347l7.835-5.892a1.75 1.75 0 0 0 .347-2.451l-8.571-11.405a1.75 1.75 0 0 0 -2.451-.347l-5.2 3.908-19.349-25.741a1.75 1.75 0 1 0 -2.8 2.107l19.366 25.754a1.744 1.744 0 0 0 -.2 2.315l.738.981-7.76 5.835a4.55 4.55 0 0 0 -.09 7.2l7.718 6.115a14.437 14.437 0 0 0 -9.494 10.718h-.078a11 11 0 0 0 -9.778 5.9 14.077 14.077 0 0 0 -8.571 3.657 1.75 1.75 0 0 0 2.359 2.585 10.572 10.572 0 0 1 7.127-2.773l.185.009a1.739 1.739 0 0 0 1.653-1.1 7.488 7.488 0 0 1 8.307-4.653 1.75 1.75 0 0 0 2.04-1.6 10.847 10.847 0 0 1 10.771-10c.315 0 .625.022.934.048a1.756 1.756 0 0 0 1.685-.9 16.25 16.25 0 0 1 26.536-2.856 1.745 1.745 0 0 0 .178.207 16.274 16.274 0 0 1 3.034 5.57 1.747 1.747 0 0 0 1.783 1.224l.179-.012c.175-.012.35-.026.527-.026a10.733 10.733 0 0 1 10.671 12.502 1.75 1.75 0 0 0 2.18 1.96 10.563 10.563 0 0 1 13.23 8.49h-8.73a1.75 1.75 0 0 0 0 3.5h11.5a1.745 1.745 0 0 0 .8-3.3zm-60.747-53.777 6.474 8.608-5.038 3.789-5.734-7.626-.737-.98z"/><path d="m97.5 114.25h-.75a1.75 1.75 0 1 0 0 3.5h.75a1.75 1.75 0 0 0 0-3.5z"/><path d="m90.313 114.25h-78.313a1.75 1.75 0 0 0 0 3.5h78.313a1.75 1.75 0 0 0 0-3.5z"/></g></svg>