<?xml version="1.0" encoding="utf-8"?>
<!-- Generator: Adobe Illustrator 23.0.2, SVG Export Plug-In . SVG Version: 6.00 Build 0)  -->
<svg version="1.1" id="Layer_1" xmlns="http://www.w3.org/2000/svg" xmlns:xlink="http://www.w3.org/1999/xlink" x="0px" y="0px"
	 viewBox="0 0 2304 1311.4" style="enable-background:new 0 0 2304 1311.4;" xml:space="preserve">
<style type="text/css">
	.st0{fill:#CED8E2;}
	.st1{fill:#E3E8EE;}
	.st2{fill:#81C8BE;}
	.st3{fill:#FFF169;}
	.st4{fill:#FFFFFF;}
	.st5{fill:#583F92;}
	.st6{opacity:0.1;}
	.st7{fill:#0D465B;}
	.st8{fill:#93BBD3;}
	.st9{opacity:0.2;}
	.st10{fill:#FFD03B;}
	.st11{fill:#69A0C6;}
	.st12{fill:#F5AB9D;}
	.st13{fill:#BFD0E4;}
	.st14{fill:#E4E2E2;}
	.st15{fill:#EC6776;}
	.st16{fill:#F7C53E;}
	.st17{fill:#E2A139;}
	.st18{fill:#F2AC3D;}
	.st19{fill:#F3B655;}
	.st20{fill:#95C11F;}
	.st21{fill-rule:evenodd;clip-rule:evenodd;fill:#583F92;}
	.st22{fill:#E94190;}
	.st23{fill:#F3E2D0;}
	.st24{fill:#F6A256;}
	.st25{fill:#FFED00;}
	.st26{fill:#8867AA;}
	.st27{fill:#575756;}
	.st28{fill:#B17F4A;}
	.st29{fill:#00A0D8;}
	.st30{fill:#E94E1B;}
	.st31{fill:#878787;}
	.st32{fill:#D7CEC5;}
	.st33{fill:#F9B326;}
</style>
<g>
	<rect class="st0" width="2304" height="1311.4"/>
	<g>
		<g>
			<path class="st1" d="M128,757.6c0,17.5,14.2,31.7,31.7,31.7h707.9c17.5,0,31.7-14.2,31.7-31.7l0,0c0-17.5-14.2-31.7-31.7-31.7
				H159.8C142.2,725.8,128,740,128,757.6L128,757.6z"/>
			<path class="st1" d="M1356.4,751.3c0,20.8,16.9,37.7,37.7,37.7h840c20.8,0,37.7-16.9,37.7-37.7l0,0c0-20.8-16.9-37.7-37.7-37.7
				h-840C1373.2,713.6,1356.4,730.5,1356.4,751.3L1356.4,751.3z"/>
			<path class="st1" d="M413.2,578.1c0,20.8,16.9,37.7,37.7,37.7h840c20.8,0,37.7-16.9,37.7-37.7l0,0c0-20.8-16.9-37.7-37.7-37.7
				h-840C430.1,540.4,413.2,557.3,413.2,578.1L413.2,578.1z"/>
			<path class="st1" d="M143.2,578.1c0,20.8,16.9,37.7,37.7,37.7h101.9c20.8,0,37.7-16.9,37.7-37.7l0,0c0-20.8-16.9-37.7-37.7-37.7
				H180.8C160,540.4,143.2,557.3,143.2,578.1L143.2,578.1z"/>
			<path class="st1" d="M1841,924c0,20.8-13.2,37.7-29.5,37.7h-658.1c-16.3,0-29.5-16.9-29.5-37.7l0,0c0-20.8,13.2-37.7,29.5-37.7
				h658.1C1827.8,886.3,1841,903.2,1841,924L1841,924z"/>
			<path class="st1" d="M2105.1,921.8c0,20.8-16.9,37.7-37.7,37.7h-101.9c-20.8,0-37.7-16.9-37.7-37.7l0,0
				c0-20.8,16.9-37.7,37.7-37.7h101.9C2088.2,884.1,2105.1,901,2105.1,921.8L2105.1,921.8z"/>
			<path class="st1" d="M362.8,779.3c0,29.6-24,53.5-53.5,53.5c-29.6,0-53.5-24-53.5-53.5c0-29.6,24-53.5,53.5-53.5
				C338.9,725.8,362.8,749.8,362.8,779.3z"/>
			<path class="st1" d="M360.8,535c0,47.2-38.2,85.4-85.4,85.4c-47.2,0-85.4-38.2-85.4-85.4c0-47.2,38.2-85.4,85.4-85.4
				C322.6,449.5,360.8,487.8,360.8,535z"/>
			<path class="st1" d="M1787.4,335.7c0,20.8-16.9,37.7-37.7,37.7h-101.9c-20.8,0-37.7-16.9-37.7-37.7l0,0
				c0-20.8,16.9-37.7,37.7-37.7h101.9C1770.5,298,1787.4,314.9,1787.4,335.7L1787.4,335.7z"/>
			<path class="st1" d="M1569.7,292.6c0,47.2,38.2,85.4,85.4,85.4c47.2,0,85.4-38.2,85.4-85.4c0-47.2-38.2-85.4-85.4-85.4
				C1608,207.1,1569.7,245.4,1569.7,292.6z"/>
			<path class="st1" d="M2195.7,725.5c0,35.1-28.4,63.5-63.5,63.5c-35.1,0-63.5-28.4-63.5-63.5c0-35.1,28.4-63.5,63.5-63.5
				C2167.3,662,2195.7,690.4,2195.7,725.5z"/>
			<path class="st1" d="M2100.6,683.3c0,58.3-47.2,105.5-105.5,105.5c-58.3,0-105.5-47.2-105.5-105.5c0-58.3,47.2-105.5,105.5-105.5
				C2053.4,577.8,2100.6,625,2100.6,683.3z"/>
			
				<ellipse transform="matrix(0.7071 -0.7071 0.7071 0.7071 80.3646 1428.9794)" class="st1" cx="1765.1" cy="617.5" rx="162.7" ry="162.7"/>
			
				<ellipse transform="matrix(0.7071 -0.7071 0.7071 0.7071 -3.2647 1211.3593)" class="st1" cx="1460.6" cy="609.6" rx="193.2" ry="193.2"/>
			<path class="st1" d="M1785.1,983.4c0,58.3-47.2,105.5-105.5,105.5c-58.3,0-105.5-47.2-105.5-105.5c0-58.3,47.2-105.5,105.5-105.5
				C1737.9,877.9,1785.1,925.2,1785.1,983.4z"/>
			<path class="st1" d="M507.4,832.9c0,49.1-39.8,88.9-88.9,88.9c-49.1,0-88.9-39.8-88.9-88.9c0-49.1,39.8-88.9,88.9-88.9
				C467.6,743.9,507.4,783.8,507.4,832.9z"/>
			
				<ellipse transform="matrix(0.1803 -0.9836 0.9836 0.1803 -387.4618 1288.894)" class="st1" cx="579.6" cy="876.9" rx="132.5" ry="132.5"/>
			<path class="st1" d="M876.3,860.2c0,68.1-55.2,123.2-123.2,123.2c-68.1,0-123.2-55.2-123.2-123.2c0-68.1,55.2-123.2,123.2-123.2
				C821.1,736.9,876.3,792.1,876.3,860.2z"/>
			<path class="st1" d="M842.6,449.5c0,80.8-65.5,146.2-146.3,146.2c-80.8,0-146.2-65.5-146.2-146.2c0-80.8,65.5-146.2,146.2-146.2
				C777.1,303.3,842.6,368.8,842.6,449.5z"/>
			
				<ellipse transform="matrix(0.1221 -0.9925 0.9925 0.1221 423.8661 1287.5587)" class="st1" cx="939.7" cy="404.2" rx="191.6" ry="191.6"/>
			<path class="st1" d="M625.8,527.5c0,37.7-30.6,68.3-68.3,68.3c-37.7,0-68.3-30.6-68.3-68.3c0-37.7,30.6-68.3,68.3-68.3
				C595.2,459.1,625.8,489.7,625.8,527.5z"/>
			<polygon class="st1" points="655.6,712 566.7,743.9 684.9,807.4 			"/>
			<g>
				<g>
					<path class="st1" d="M1184.7,1131.1c-60.6,0-119.5-11.9-174.9-35.3c-53.5-22.6-101.5-55-142.8-96.3
						c-41.3-41.3-73.6-89.3-96.3-142.8c-23.4-55.4-35.3-114.2-35.3-174.9c0-60.6,11.9-119.5,35.3-174.9
						c22.6-53.5,55-101.5,96.3-142.8c41.3-41.3,89.3-73.6,142.8-96.3c55.4-23.4,114.2-35.3,174.9-35.3s119.5,11.9,174.9,35.3
						c53.5,22.6,101.5,55,142.8,96.3c41.3,41.3,73.6,89.3,96.3,142.8c23.4,55.4,35.3,114.2,35.3,174.9c0,60.6-11.9,119.5-35.3,174.9
						c-22.6,53.5-55,101.5-96.3,142.8c-41.3,41.3-89.3,73.6-142.8,96.3C1304.2,1119.3,1245.3,1131.1,1184.7,1131.1z M1184.7,233.7
						c-247.1,0-448.2,201.1-448.2,448.2c0,247.1,201.1,448.2,448.2,448.2s448.2-201.1,448.2-448.2
						C1632.9,434.8,1431.8,233.7,1184.7,233.7z"/>
				</g>
				<g>
					<path class="st1" d="M1184.7,1183.4c-2,0-4,0-5.9,0l0-2c4,0,8.1,0,12.2,0l0,2C1188.9,1183.4,1186.8,1183.4,1184.7,1183.4z
						 M1166.5,1183.1c-4-0.1-8.2-0.3-12.2-0.6l0.1-2c4,0.2,8.1,0.4,12.1,0.6L1166.5,1183.1z M1203.2,1183.1l-0.1-2
						c4-0.1,8.1-0.3,12.2-0.6l0.1,2C1211.3,1182.8,1207.2,1183,1203.2,1183.1z M1142.2,1181.7c-4-0.3-8.1-0.7-12.2-1.2l0.2-2
						c4,0.4,8.1,0.8,12.1,1.2L1142.2,1181.7z M1227.5,1181.6l-0.2-2c4-0.3,8.1-0.7,12.1-1.2l0.2,2
						C1235.7,1180.9,1231.6,1181.3,1227.5,1181.6z M1117.9,1179c-4-0.5-8.1-1.1-12.1-1.8l0.3-2c4,0.6,8,1.2,12,1.8L1117.9,1179z
						 M1251.8,1179l-0.3-2c4-0.5,8.1-1.1,12-1.8l0.3,2C1259.9,1177.9,1255.8,1178.5,1251.8,1179z M1093.8,1175.2
						c-4-0.7-8-1.5-12-2.3l0.4-2c3.9,0.8,8,1.6,11.9,2.3L1093.8,1175.2z M1275.9,1175.2l-0.4-2c4-0.7,8-1.5,11.9-2.3l0.4,2
						C1284,1173.6,1279.9,1174.4,1275.9,1175.2z M1069.8,1170.2c-3.9-0.9-7.9-1.9-11.9-2.9l0.5-2c3.9,1,7.9,2,11.8,2.9
						L1069.8,1170.2z M1299.8,1170.2l-0.5-2c3.9-0.9,7.9-1.9,11.8-2.9l0.5,2C1307.8,1168.3,1303.8,1169.2,1299.8,1170.2z
						 M1046.2,1164.1c-3.9-1.1-7.8-2.3-11.7-3.5l0.6-1.9c3.9,1.2,7.8,2.4,11.6,3.5L1046.2,1164.1z M1323.5,1164l-0.6-2
						c3.9-1.1,7.8-2.3,11.6-3.5l0.6,1.9C1331.3,1161.7,1327.3,1162.9,1323.5,1164z M1022.9,1156.8c-3.9-1.3-7.7-2.7-11.6-4.1
						l0.7-1.9c3.8,1.4,7.7,2.8,11.5,4.1L1022.9,1156.8z M1346.8,1156.7l-0.7-1.9c3.8-1.3,7.7-2.7,11.5-4.1l0.7,1.9
						C1354.5,1154,1350.6,1155.4,1346.8,1156.7z M999.9,1148.3c-3.8-1.5-7.6-3.1-11.3-4.7l0.8-1.9c3.7,1.6,7.5,3.1,11.3,4.6
						L999.9,1148.3z M1369.7,1148.2l-0.7-1.9c3.7-1.5,7.5-3,11.2-4.6l0.8,1.9C1377.2,1145.2,1373.4,1146.7,1369.7,1148.2z
						 M977.3,1138.7c-3.7-1.7-7.4-3.4-11.1-5.2l0.9-1.8c3.6,1.8,7.4,3.5,11,5.2L977.3,1138.7z M1392.1,1138.7l-0.8-1.8
						c3.7-1.7,7.3-3.4,11-5.2l0.9,1.8C1399.5,1135.3,1395.7,1137,1392.1,1138.7z M1414,1128.1l-0.9-1.8c3.6-1.8,7.2-3.8,10.7-5.7
						l1,1.8C1421.2,1124.3,1417.6,1126.2,1414,1128.1z M955.3,1128c-3.6-1.9-7.2-3.8-10.8-5.7l1-1.8c3.6,1.9,7.2,3.9,10.8,5.7
						L955.3,1128z M1435.4,1116.4l-1-1.8c3.5-2,7-4.1,10.4-6.2l1.1,1.7C1442.4,1112.3,1438.9,1114.4,1435.4,1116.4z M933.8,1116.3
						c-3.5-2-7.1-4.1-10.5-6.3l1.1-1.7c3.4,2.1,7,4.2,10.5,6.2L933.8,1116.3z M1456.2,1103.7l-1.1-1.7c3.4-2.2,6.8-4.4,10.1-6.7
						l1.1,1.7C1463,1099.2,1459.6,1101.5,1456.2,1103.7z M913,1103.5c-3.4-2.2-6.8-4.5-10.2-6.8l1.1-1.7c3.3,2.3,6.8,4.5,10.2,6.7
						L913,1103.5z M1476.3,1090l-1.2-1.7c3.3-2.3,6.6-4.8,9.8-7.2l1.2,1.6C1482.9,1085.2,1479.6,1087.6,1476.3,1090z M892.8,1089.8
						c-3.3-2.4-6.6-4.8-9.8-7.2l1.2-1.6c3.2,2.4,6.5,4.9,9.8,7.2L892.8,1089.8z M1495.8,1075.3l-1.3-1.6c3.2-2.5,6.3-5.1,9.4-7.7
						l1.3,1.6C1502.2,1070.2,1499,1072.8,1495.8,1075.3z M873.3,1075.1c-3.2-2.5-6.4-5.1-9.5-7.7l1.3-1.6c3.1,2.6,6.3,5.2,9.4,7.7
						L873.3,1075.1z M1514.6,1059.7l-1.3-1.5c3-2.7,6.1-5.4,9.1-8.1l1.4,1.5C1520.7,1054.3,1517.6,1057,1514.6,1059.7z
						 M854.5,1059.4c-3.1-2.7-6.1-5.4-9.1-8.2l1.4-1.5c3,2.7,6,5.5,9.1,8.1L854.5,1059.4z M1532.6,1043.2l-1.4-1.5
						c2.9-2.8,5.8-5.7,8.7-8.5l1.4,1.4C1538.4,1037.5,1535.5,1040.4,1532.6,1043.2z M836.5,1042.9c-2.9-2.8-5.8-5.7-8.7-8.6l1.4-1.4
						c2.8,2.9,5.8,5.8,8.7,8.5L836.5,1042.9z M1549.7,1025.8l-1.5-1.4c2.8-2.9,5.5-5.9,8.2-9l1.5,1.4
						C1555.3,1019.9,1552.5,1022.9,1549.7,1025.8z M819.3,1025.5c-2.8-2.9-5.6-6-8.3-9l1.5-1.4c2.7,3,5.5,6,8.2,9L819.3,1025.5z
						 M1566.1,1007.6l-1.5-1.3c2.6-3.1,5.2-6.2,7.8-9.3l1.6,1.3C1571.3,1001.4,1568.7,1004.6,1566.1,1007.6z M803,1007.3
						c-2.6-3.1-5.3-6.2-7.8-9.4l1.6-1.3c2.5,3.1,5.2,6.3,7.8,9.3L803,1007.3z M1581.5,988.7l-1.6-1.2c2.5-3.2,4.9-6.5,7.3-9.7
						l1.6,1.2C1586.4,982.2,1584,985.5,1581.5,988.7z M787.7,988.4c-2.5-3.2-4.9-6.5-7.3-9.7l1.6-1.2c2.4,3.2,4.8,6.5,7.3,9.7
						L787.7,988.4z M1596,969l-1.7-1.2c2.3-3.3,4.6-6.7,6.9-10.1l1.7,1.1C1600.6,962.3,1598.3,965.7,1596,969z M773.2,968.7
						c-2.3-3.3-4.6-6.7-6.9-10.1l1.7-1.1c2.2,3.4,4.5,6.7,6.8,10L773.2,968.7z M1609.5,948.6l-1.7-1.1c2.1-3.4,4.3-6.9,6.4-10.4
						l1.7,1C1613.8,941.7,1611.6,945.2,1609.5,948.6z M759.7,948.4c-2.1-3.4-4.3-6.9-6.4-10.4l1.7-1c2.1,3.5,4.2,7,6.3,10.4
						L759.7,948.4z M1622,927.6l-1.8-1c2-3.5,3.9-7.1,5.8-10.7l1.8,1C1626,920.5,1624,924.1,1622,927.6z M747.3,927.5
						c-2-3.5-4-7.1-5.8-10.7l1.8-1c1.9,3.6,3.8,7.1,5.8,10.6L747.3,927.5z M1633.5,906l-1.8-0.9c1.8-3.6,3.6-7.3,5.3-11l1.8,0.9
						C1637.1,898.7,1635.3,902.4,1633.5,906z M735.9,906c-1.8-3.6-3.6-7.3-5.3-11l1.8-0.9c1.7,3.6,3.5,7.3,5.3,10.9L735.9,906z
						 M725.5,883.9c-1.6-3.7-3.2-7.4-4.8-11.2l1.9-0.8c1.5,3.7,3.1,7.5,4.8,11.2L725.5,883.9z M1643.9,883.8l-1.9-0.8
						c1.6-3.7,3.2-7.5,4.8-11.2l1.9,0.8C1647.2,876.3,1645.5,880.1,1643.9,883.8z M716.2,861.4c-1.5-3.8-2.9-7.6-4.2-11.5l1.9-0.7
						c1.3,3.8,2.8,7.6,4.2,11.4L716.2,861.4z M1653.2,861.2l-1.9-0.7c1.5-3.8,2.9-7.6,4.2-11.4l1.9,0.7
						C1656.1,853.5,1654.7,857.4,1653.2,861.2z M708,838.4c-1.3-3.8-2.5-7.8-3.7-11.7l1.9-0.6c1.2,3.9,2.4,7.8,3.7,11.6L708,838.4z
						 M1661.4,838.1l-1.9-0.6c1.3-3.8,2.5-7.8,3.7-11.6l1.9,0.6C1663.9,830.3,1662.7,834.2,1661.4,838.1z M701,815
						c-1.1-3.9-2.1-7.9-3.1-11.8l2-0.5c1,3.9,2,7.9,3.1,11.8L701,815z M1668.5,814.7l-2-0.5c1.1-3.9,2.1-7.9,3.1-11.8l2,0.5
						C1670.6,806.8,1669.5,810.8,1668.5,814.7z M695.1,791.3c-0.9-4-1.7-8-2.5-12l2-0.4c0.8,4,1.6,8,2.5,11.9L695.1,791.3z
						 M1674.3,791l-2-0.4c0.9-3.9,1.7-7.9,2.5-11.9l2,0.4C1676,783,1675.2,787,1674.3,791z M690.4,767.3c-0.7-4-1.3-8-1.9-12.1
						l2-0.3c0.6,4,1.2,8,1.9,12L690.4,767.3z M1679,767l-2-0.3c0.7-4,1.3-8,1.9-12l2,0.3C1680.4,758.9,1679.7,763,1679,767z
						 M686.8,743.2c-0.5-4-0.9-8.1-1.3-12.1l2-0.2c0.4,4,0.8,8.1,1.3,12.1L686.8,743.2z M1682.6,742.8l-2-0.2
						c0.5-4,0.9-8.1,1.3-12.1l2,0.2C1683.5,734.7,1683,738.8,1682.6,742.8z M684.5,718.8c-0.3-4-0.5-8.1-0.7-12.2l2-0.1
						c0.2,4,0.4,8.1,0.7,12.1L684.5,718.8z M1684.9,718.5l-2-0.1c0.3-4,0.5-8.1,0.7-12.1l2,0.1
						C1685.4,710.4,1685.2,714.5,1684.9,718.5z M683.3,694.5c-0.1-4-0.2-8.1-0.2-12.2l2,0c0,4,0.1,8.1,0.2,12.2L683.3,694.5z
						 M1686.1,694.1l-2,0c0.1-4,0.1-8.1,0.1-12.2v-0.7l2,0v0.7C1686.2,686,1686.2,690.1,1686.1,694.1z M685.3,670.1l-2,0
						c0.1-4.1,0.2-8.2,0.4-12.2l2,0.1C685.6,661.9,685.4,666,685.3,670.1z M1684,669.1c-0.1-4-0.3-8.1-0.5-12.2l2-0.1
						c0.2,4,0.4,8.1,0.5,12.2L1684,669.1z M686.5,645.8l-2-0.1c0.3-4,0.6-8.1,1-12.2l2,0.2C687.1,637.7,686.8,641.8,686.5,645.8z
						 M1682.8,644.8c-0.3-4-0.6-8.1-1-12.1l2-0.2c0.4,4,0.7,8.1,1,12.2L1682.8,644.8z M688.8,621.6l-2-0.2c0.5-4,1-8.1,1.6-12.1
						l2,0.3C689.8,613.5,689.3,617.5,688.8,621.6z M1680.5,620.6c-0.5-4-1-8.1-1.6-12.1l2-0.3c0.6,4,1.1,8.1,1.6,12.1L1680.5,620.6z
						 M692.3,597.5l-2-0.3c0.7-4,1.4-8,2.2-12l2,0.4C693.7,589.5,693,593.5,692.3,597.5z M1676.9,596.5c-0.7-4-1.4-8-2.2-12l2-0.4
						c0.8,4,1.5,8,2.2,12L1676.9,596.5z M697,573.6l-2-0.4c0.9-4,1.8-8,2.8-11.9l2,0.5C698.8,565.7,697.8,569.7,697,573.6z
						 M1672.2,572.6c-0.9-3.9-1.8-7.9-2.8-11.8l2-0.5c1,3.9,1.9,7.9,2.8,11.9L1672.2,572.6z M702.8,550l-2-0.5
						c1.1-3.9,2.2-7.9,3.4-11.7l1.9,0.6C705,542.2,703.8,546.1,702.8,550z M1666.3,549c-1.1-3.9-2.2-7.8-3.4-11.7l1.9-0.6
						c1.2,3.9,2.3,7.8,3.4,11.7L1666.3,549z M709.8,526.7l-1.9-0.6c1.3-3.9,2.6-7.8,3.9-11.6l1.9,0.7
						C712.3,519,711,522.9,709.8,526.7z M1659.3,525.8c-1.3-3.8-2.6-7.7-3.9-11.5l1.9-0.7c1.4,3.8,2.7,7.7,4,11.6L1659.3,525.8z
						 M717.9,503.7L716,503c1.5-3.8,3-7.6,4.5-11.4l1.9,0.8C720.9,496.1,719.4,499.9,717.9,503.7z M1651.1,502.8
						c-1.4-3.8-3-7.6-4.5-11.3l1.9-0.8c1.5,3.8,3.1,7.6,4.5,11.3L1651.1,502.8z M727.2,481.1l-1.9-0.8c1.6-3.7,3.3-7.5,5.1-11.1
						l1.8,0.9C730.5,473.7,728.8,477.4,727.2,481.1z M1641.9,480.4c-1.6-3.7-3.3-7.4-5-11l1.8-0.9c1.7,3.7,3.4,7.4,5.1,11.1
						L1641.9,480.4z M737.5,459.1l-1.8-0.9c1.8-3.6,3.7-7.3,5.6-10.9l1.8,1C741.2,451.8,739.3,455.4,737.5,459.1z M1631.5,458.5
						c-1.8-3.6-3.7-7.2-5.6-10.8l1.8-1c1.9,3.6,3.8,7.2,5.6,10.8L1631.5,458.5z M748.9,437.5l-1.8-1c2-3.5,4-7.1,6.1-10.6l1.7,1
						C753,430.5,750.9,434,748.9,437.5z M1620.1,437c-2-3.5-4-7-6.1-10.5l1.7-1c2.1,3.5,4.1,7,6.1,10.5L1620.1,437z M761.4,416.6
						l-1.7-1.1c2.2-3.4,4.4-6.9,6.6-10.3l1.7,1.1C765.8,409.7,763.5,413.2,761.4,416.6z M1607.7,416.2c-2.2-3.4-4.4-6.8-6.6-10.2
						l1.7-1.1c2.2,3.4,4.5,6.8,6.6,10.2L1607.7,416.2z M774.8,396.3l-1.7-1.2c2.3-3.3,4.7-6.7,7.1-9.9l1.6,1.2
						C779.5,389.7,777.2,393,774.8,396.3z M1594.3,396c-2.3-3.3-4.7-6.6-7.1-9.9l1.6-1.2c2.4,3.3,4.8,6.6,7.1,9.9L1594.3,396z
						 M789.3,376.7l-1.6-1.2c2.5-3.2,5-6.4,7.6-9.6l1.6,1.3C794.3,370.3,791.7,373.5,789.3,376.7z M1579.9,376.4
						c-2.5-3.2-5-6.4-7.6-9.5l1.6-1.3c2.6,3.1,5.1,6.4,7.6,9.6L1579.9,376.4z M804.6,357.8l-1.5-1.3c2.6-3.1,5.3-6.2,8-9.2l1.5,1.4
						C809.9,351.6,807.2,354.7,804.6,357.8z M1564.5,357.5c-2.6-3.1-5.3-6.1-8-9.1l1.5-1.4c2.7,3,5.4,6.1,8,9.2L1564.5,357.5z
						 M820.9,339.7l-1.5-1.4c2.8-2.9,5.6-5.9,8.5-8.8l1.4,1.4C826.5,333.8,823.6,336.7,820.9,339.7z M1548.3,339.4
						c-2.8-2.9-5.6-5.9-8.4-8.7l1.4-1.4c2.9,2.9,5.7,5.8,8.5,8.8L1548.3,339.4z M837.9,322.4l-1.4-1.5c2.9-2.8,5.9-5.6,8.9-8.4
						l1.4,1.5C843.8,316.8,840.8,319.6,837.9,322.4z M1531.2,322.2c-2.9-2.8-5.9-5.6-8.9-8.3l1.4-1.5c3,2.7,6,5.6,8.9,8.4
						L1531.2,322.2z M855.8,305.9l-1.3-1.5c3-2.7,6.2-5.3,9.3-7.9l1.3,1.6C862,300.6,858.9,303.3,855.8,305.9z M1513.3,305.7
						c-3-2.7-6.1-5.3-9.3-7.9l1.3-1.6c3.1,2.6,6.3,5.3,9.3,7.9L1513.3,305.7z M874.5,290.4l-1.3-1.6c3.2-2.5,6.4-5,9.6-7.5l1.2,1.6
						C880.9,285.3,877.7,287.8,874.5,290.4z M1494.6,290.1c-3.2-2.5-6.4-5-9.6-7.4l1.2-1.6c3.2,2.4,6.5,4.9,9.7,7.5L1494.6,290.1z
						 M893.9,275.7l-1.2-1.7c3.3-2.4,6.6-4.7,10-7l1.1,1.7C900.5,271,897.2,273.4,893.9,275.7z M1475.1,275.5c-3.3-2.3-6.6-4.7-10-7
						l1.1-1.7c3.4,2.3,6.7,4.6,10,7L1475.1,275.5z M914,262l-1.1-1.7c3.4-2.2,6.9-4.4,10.3-6.5l1.1,1.7
						C920.8,257.7,917.4,259.9,914,262z M1455,261.8c-3.4-2.2-6.9-4.4-10.3-6.5l1.1-1.7c3.5,2.1,7,4.3,10.4,6.5L1455,261.8z
						 M934.7,249.4l-1-1.8c3.5-2,7.1-4,10.6-6l1,1.8C941.7,245.4,938.2,247.4,934.7,249.4z M1434.2,249.1c-3.5-2-7.1-4-10.6-6l1-1.8
						c3.6,1.9,7.1,4,10.7,6L1434.2,249.1z M956,237.7l-0.9-1.8c3.6-1.9,7.2-3.7,10.9-5.5l0.9,1.8C963.2,234.1,959.6,235.9,956,237.7
						z M1412.8,237.4c-3.6-1.8-7.3-3.7-10.9-5.4l0.9-1.8c3.7,1.8,7.3,3.6,10.9,5.5L1412.8,237.4z M977.8,227.1l-0.8-1.8
						c3.7-1.7,7.4-3.3,11.1-4.9l0.8,1.9C985.2,223.8,981.5,225.5,977.8,227.1z M1390.9,226.8c-3.7-1.7-7.4-3.3-11.2-4.9l0.8-1.9
						c3.7,1.6,7.5,3.2,11.2,4.9L1390.9,226.8z M1000.1,217.6l-0.8-1.9c3.8-1.5,7.6-3,11.4-4.4l0.7,1.9
						C1007.7,214.7,1003.8,216.1,1000.1,217.6z M1368.4,217.3c-3.8-1.5-7.6-2.9-11.4-4.3l0.7-1.9c3.8,1.4,7.7,2.9,11.4,4.4
						L1368.4,217.3z M1022.9,209.2l-0.7-1.9c3.8-1.3,7.7-2.6,11.6-3.8l0.6,1.9C1030.6,206.6,1026.7,207.9,1022.9,209.2z
						 M1345.5,208.9c-3.8-1.3-7.7-2.6-11.6-3.8l0.6-1.9c3.9,1.2,7.8,2.5,11.7,3.8L1345.5,208.9z M1046.1,201.9l-0.6-2
						c3.9-1.1,7.9-2.2,11.8-3.2l0.5,2C1053.9,199.7,1050,200.8,1046.1,201.9z M1322.2,201.6c-3.9-1.1-7.8-2.2-11.7-3.2l0.5-2
						c3.9,1,7.9,2.1,11.8,3.2L1322.2,201.6z M1069.6,195.7l-0.5-2c3.9-0.9,7.9-1.8,11.9-2.7l0.4,2
						C1077.6,193.9,1073.6,194.8,1069.6,195.7z M1298.7,195.5c-3.9-0.9-7.9-1.8-11.9-2.6l0.4-2c4,0.8,8,1.7,11.9,2.6L1298.7,195.5z
						 M1093.4,190.7l-0.4-2c4-0.7,8-1.4,12-2.1l0.3,2C1101.4,189.3,1097.4,190,1093.4,190.7z M1274.9,190.5c-4-0.7-8-1.4-12-2l0.3-2
						c4,0.6,8.1,1.3,12,2L1274.9,190.5z M1117.5,186.9l-0.3-2c4-0.5,8.1-1,12.1-1.5l0.2,2C1125.5,185.9,1121.5,186.4,1117.5,186.9z
						 M1250.9,186.8c-4-0.5-8.1-1-12.1-1.4l0.2-2c4,0.4,8.1,0.9,12.1,1.5L1250.9,186.8z M1141.6,184.2l-0.2-2
						c4-0.3,8.1-0.6,12.2-0.9l0.1,2C1149.7,183.6,1145.7,183.9,1141.6,184.2z M1226.7,184.2c-4-0.3-8.1-0.6-12.1-0.9l0.1-2
						c4,0.2,8.1,0.5,12.2,0.9L1226.7,184.2z M1165.9,182.8l-0.1-2c4-0.1,8.1-0.3,12.2-0.3l0,2C1174,182.5,1169.9,182.6,1165.9,182.8
						z M1202.4,182.7c-4-0.1-8.1-0.2-12.2-0.3l0-2c4.1,0,8.2,0.1,12.2,0.3L1202.4,182.7z"/>
				</g>
				<g>
					<path class="st1" d="M1178.8,1283.1c-4.1,0-8.2-0.1-12.2-0.2l0.1-2c4,0.1,8.1,0.2,12.1,0.2L1178.8,1283.1z M1190.9,1283.1l0-2
						c4,0,8.1-0.1,12.1-0.2l0.1,2C1199.1,1283,1195,1283,1190.9,1283.1z M1154.4,1282.4c-4-0.2-8.1-0.4-12.2-0.7l0.1-2
						c4,0.3,8.1,0.5,12.1,0.7L1154.4,1282.4z M1215.3,1282.4l-0.1-2c4-0.2,8.1-0.4,12.1-0.7l0.1,2
						C1223.4,1281.9,1219.3,1282.1,1215.3,1282.4z M1130.1,1280.7c-4-0.4-8.1-0.8-12.1-1.2l0.2-2c4,0.4,8.1,0.8,12.1,1.2
						L1130.1,1280.7z M1239.6,1280.6l-0.2-2c4-0.4,8.1-0.8,12.1-1.2l0.2,2C1247.7,1279.9,1243.6,1280.3,1239.6,1280.6z M1105.9,1278
						c-4-0.5-8.1-1.1-12.1-1.7l0.3-2c4,0.6,8,1.2,12,1.7L1105.9,1278z M1263.8,1278l-0.3-2c4-0.5,8-1.1,12-1.7l0.3,2
						C1271.9,1276.8,1267.8,1277.4,1263.8,1278z M1081.8,1274.3c-4-0.7-8-1.4-12-2.2l0.4-2c3.9,0.8,8,1.5,11.9,2.2L1081.8,1274.3z
						 M1287.9,1274.3l-0.3-2c4-0.7,8-1.4,11.9-2.2l0.4,2C1295.9,1272.9,1291.9,1273.6,1287.9,1274.3z M1057.9,1269.7
						c-3.9-0.8-7.9-1.7-11.9-2.7l0.5-2c3.9,0.9,7.9,1.8,11.8,2.7L1057.9,1269.7z M1311.8,1269.6l-0.4-2c3.9-0.8,7.9-1.7,11.8-2.7
						l0.5,2C1319.8,1267.9,1315.8,1268.8,1311.8,1269.6z M1034.2,1264.1c-3.9-1-7.9-2.1-11.8-3.2l0.5-2c3.9,1.1,7.8,2.2,11.7,3.2
						L1034.2,1264.1z M1335.5,1264l-0.5-2c3.9-1,7.8-2.1,11.7-3.2l0.5,2C1343.4,1262,1339.5,1263,1335.5,1264z M1010.7,1257.5
						c-3.9-1.2-7.8-2.4-11.7-3.7l0.6-1.9c3.8,1.2,7.8,2.5,11.6,3.6L1010.7,1257.5z M1359,1257.5l-0.6-1.9c3.8-1.2,7.7-2.4,11.6-3.6
						l0.6,1.9C1366.8,1255.1,1362.9,1256.3,1359,1257.5z M987.4,1250c-3.8-1.3-7.7-2.7-11.5-4.1l0.7-1.9c3.8,1.4,7.7,2.8,11.5,4.1
						L987.4,1250z M1382.2,1249.9l-0.7-1.9c3.8-1.3,7.6-2.7,11.4-4.1l0.7,1.9C1389.9,1247.2,1386,1248.6,1382.2,1249.9z
						 M964.5,1241.5c-3.8-1.5-7.6-3-11.3-4.6l0.8-1.9c3.7,1.6,7.5,3.1,11.3,4.6L964.5,1241.5z M1405,1241.5l-0.7-1.9
						c3.7-1.5,7.5-3,11.2-4.5l0.8,1.9C1412.6,1238.4,1408.8,1240,1405,1241.5z M941.9,1232.1c-3.7-1.6-7.4-3.3-11.1-5.1l0.9-1.8
						c3.7,1.7,7.4,3.4,11.1,5L941.9,1232.1z M1427.4,1232.1l-0.8-1.9c3.7-1.6,7.4-3.3,11-5l0.9,1.8
						C1434.8,1228.8,1431.1,1230.5,1427.4,1232.1z M1449.4,1221.8l-0.9-1.8c3.6-1.8,7.2-3.6,10.8-5.4l0.9,1.8
						C1456.7,1218.2,1453.1,1220.1,1449.4,1221.8z M919.8,1221.8c-3.6-1.8-7.3-3.6-10.9-5.5l0.9-1.8c3.6,1.9,7.2,3.7,10.9,5.5
						L919.8,1221.8z M1471,1210.7l-1-1.8c3.5-1.9,7.1-3.9,10.6-5.9l1,1.8C1478.1,1206.8,1474.6,1208.8,1471,1210.7z M898.1,1210.5
						c-3.5-1.9-7.1-3.9-10.7-5.9l1-1.8c3.5,2,7.1,4,10.6,5.9L898.1,1210.5z M1492.2,1198.6l-1-1.7c3.4-2,6.9-4.2,10.3-6.3l1.1,1.7
						C1499.1,1194.5,1495.6,1196.6,1492.2,1198.6z M876.9,1198.5c-3.5-2.1-7-4.2-10.4-6.4l1.1-1.7c3.4,2.1,6.9,4.3,10.4,6.3
						L876.9,1198.5z M1512.8,1185.8l-1.1-1.7c3.4-2.2,6.8-4.5,10.1-6.7l1.1,1.7C1519.6,1181.3,1516.2,1183.6,1512.8,1185.8z
						 M856.2,1185.5c-3.4-2.2-6.8-4.5-10.1-6.8l1.1-1.7c3.3,2.3,6.7,4.6,10.1,6.8L856.2,1185.5z M1532.9,1172.1l-1.2-1.7
						c3.3-2.3,6.6-4.7,9.8-7.1l1.2,1.6C1539.5,1167.3,1536.2,1169.7,1532.9,1172.1z M836.1,1171.8c-3.3-2.4-6.6-4.8-9.9-7.2l1.2-1.6
						c3.2,2.4,6.5,4.8,9.8,7.2L836.1,1171.8z M1552.4,1157.6l-1.2-1.6c3.2-2.5,6.4-5,9.5-7.5l1.3,1.6
						C1558.8,1152.5,1555.6,1155.1,1552.4,1157.6z M816.5,1157.2c-3.2-2.5-6.4-5-9.6-7.6l1.3-1.6c3.1,2.5,6.3,5.1,9.5,7.5
						L816.5,1157.2z M1571.4,1142.3l-1.3-1.6c3.1-2.6,6.2-5.2,9.2-7.9l1.3,1.5C1577.6,1137,1574.5,1139.7,1571.4,1142.3z
						 M797.5,1141.9c-3.1-2.6-6.2-5.3-9.2-7.9l1.3-1.5c3,2.7,6.1,5.3,9.2,7.9L797.5,1141.9z M1589.7,1126.2l-1.4-1.5
						c3-2.7,6-5.5,8.9-8.3l1.4,1.5C1595.7,1120.7,1592.7,1123.5,1589.7,1126.2z M779.2,1125.8c-3-2.7-6-5.5-8.9-8.3l1.4-1.5
						c2.9,2.8,5.9,5.6,8.9,8.3L779.2,1125.8z M1607.4,1109.5l-1.4-1.4c2.9-2.8,5.7-5.7,8.5-8.6l1.5,1.4
						C1613.1,1103.7,1610.2,1106.6,1607.4,1109.5z M761.6,1109c-2.9-2.8-5.8-5.8-8.6-8.7l1.5-1.4c2.8,2.9,5.7,5.8,8.5,8.6
						L761.6,1109z M1624.3,1092l-1.5-1.4c2.8-2.9,5.5-6,8.2-9l1.5,1.4C1629.9,1086,1627.1,1089,1624.3,1092z M744.6,1091.5
						c-2.7-3-5.5-6-8.2-9l1.5-1.4c2.7,3,5.4,6,8.2,9L744.6,1091.5z M1640.6,1073.8l-1.5-1.3c2.6-3.1,5.3-6.2,7.8-9.3l1.6,1.3
						C1645.9,1067.6,1643.2,1070.7,1640.6,1073.8z M728.4,1073.4c-2.6-3.1-5.3-6.2-7.8-9.3l1.6-1.3c2.6,3.1,5.2,6.2,7.8,9.3
						L728.4,1073.4z M1656.1,1055l-1.6-1.3c2.5-3.2,5-6.4,7.5-9.6l1.6,1.2C1661.2,1048.6,1658.6,1051.9,1656.1,1055z M712.9,1054.6
						c-2.5-3.2-5-6.4-7.5-9.6l1.6-1.2c2.4,3.2,4.9,6.4,7.4,9.6L712.9,1054.6z M1670.9,1035.6l-1.6-1.2c2.4-3.3,4.8-6.6,7.1-9.9
						l1.7,1.2C1675.6,1029,1673.3,1032.3,1670.9,1035.6z M698.2,1035.2c-2.4-3.3-4.8-6.6-7.1-9.9l1.7-1.2c2.3,3.3,4.7,6.6,7,9.9
						L698.2,1035.2z M1684.8,1015.6l-1.7-1.1c2.3-3.4,4.5-6.8,6.7-10.2l1.7,1.1C1689.3,1008.8,1687.1,1012.2,1684.8,1015.6z
						 M684.3,1015.2c-2.2-3.4-4.5-6.8-6.6-10.2l1.7-1.1c2.2,3.4,4.4,6.8,6.6,10.2L684.3,1015.2z M1698,995.1l-1.7-1.1
						c2.1-3.5,4.2-7,6.2-10.4l1.8,1C1702.2,988.1,1700.1,991.6,1698,995.1z M671.2,994.7c-2.1-3.4-4.2-7-6.2-10.4l1.8-1
						c2,3.5,4.1,7,6.2,10.4L671.2,994.7z M1710.3,974l-1.8-1c2-3.5,3.9-7.1,5.8-10.7l1.8,1C1714.2,966.8,1712.3,970.4,1710.3,974z
						 M658.9,973.7c-2-3.5-3.9-7.1-5.8-10.7l1.8-1c1.9,3.6,3.8,7.1,5.8,10.6L658.9,973.7z M1721.7,952.4l-1.8-0.9
						c1.8-3.6,3.6-7.3,5.4-10.9l1.8,0.9C1725.4,945.1,1723.6,948.8,1721.7,952.4z M647.5,952.2c-1.8-3.6-3.6-7.3-5.4-10.9l1.8-0.9
						c1.7,3.6,3.5,7.3,5.3,10.9L647.5,952.2z M1732.3,930.4l-1.8-0.8c1.7-3.7,3.3-7.4,4.9-11.1l1.9,0.8
						C1735.6,922.9,1734,926.7,1732.3,930.4z M637,930.3c-1.7-3.7-3.3-7.4-4.9-11.1l1.9-0.8c1.6,3.7,3.2,7.4,4.9,11.1L637,930.3z
						 M627.5,908c-1.5-3.7-3-7.6-4.5-11.3l1.9-0.7c1.4,3.8,2.9,7.6,4.5,11.3L627.5,908z M1742,907.9l-1.9-0.8
						c1.5-3.8,3-7.6,4.5-11.3l1.9,0.7C1745,900.3,1743.5,904.2,1742,907.9z M618.7,885.3c-1.4-3.8-2.7-7.7-4-11.5l1.9-0.6
						c1.3,3.8,2.6,7.7,4,11.5L618.7,885.3z M1750.7,885.1l-1.9-0.7c1.4-3.8,2.7-7.7,4-11.5l1.9,0.6
						C1753.4,877.4,1752.1,881.3,1750.7,885.1z M611,862.2c-1.2-3.9-2.4-7.8-3.5-11.7l2-0.6c1.1,3.8,2.3,7.8,3.5,11.6L611,862.2z
						 M1758.5,861.9l-1.9-0.6c1.2-3.8,2.4-7.8,3.5-11.6l2,0.6C1760.9,854.1,1759.7,858,1758.5,861.9z M604.2,838.8
						c-1.1-3.9-2.1-7.9-3.1-11.8l2-0.5c1,3.9,2,7.9,3,11.8L604.2,838.8z M1765.3,838.5l-2-0.5c1-3.9,2.1-7.8,3-11.8l2,0.5
						C1767.4,830.6,1766.3,834.6,1765.3,838.5z M598.3,815.1c-0.9-3.9-1.8-7.9-2.6-11.9l2-0.4c0.8,4,1.7,8,2.6,11.9L598.3,815.1z
						 M1771.1,814.9l-2-0.4c0.9-3.9,1.7-7.9,2.6-11.9l2,0.4C1772.9,806.9,1772,810.9,1771.1,814.9z M593.4,791.3
						c-0.7-4-1.4-8-2.1-12l2-0.3c0.6,4,1.3,8,2.1,12L593.4,791.3z M1776,791l-2-0.4c0.7-4,1.4-8,2.1-12l2,0.3
						C1777.4,783,1776.7,787,1776,791z M589.5,767.2c-0.6-4-1.1-8.1-1.6-12.1l2-0.2c0.5,4,1,8,1.6,12L589.5,767.2z M1779.9,766.9
						l-2-0.3c0.6-4,1.1-8,1.6-12l2,0.2C1781,758.8,1780.5,762.9,1779.9,766.9z M586.5,743c-0.4-4-0.8-8.1-1.1-12.1l2-0.2
						c0.3,4,0.7,8.1,1.1,12.1L586.5,743z M1782.8,742.7l-2-0.2c0.4-4,0.8-8.1,1.1-12.1l2,0.2
						C1783.6,734.6,1783.2,738.7,1782.8,742.7z M584.6,718.7c-0.2-4-0.4-8.1-0.6-12.2l2-0.1c0.2,4,0.4,8.1,0.6,12.1L584.6,718.7z
						 M1784.8,718.4l-2-0.1c0.2-4,0.4-8.1,0.6-12.1l2,0.1C1785.2,710.3,1785,714.4,1784.8,718.4z M583.6,694.4
						c-0.1-4-0.1-8.1-0.1-12.2h2c0,4,0,8.1,0.1,12.1L583.6,694.4z M1785.8,694.1l-2,0c0.1-4,0.1-8.1,0.1-12.1v-0.6h2v0.6
						C1785.9,686,1785.8,690.1,1785.8,694.1z M585.6,670.1l-2,0c0.1-4,0.2-8.1,0.4-12.2l2,0.1C585.8,662,585.7,666.1,585.6,670.1z
						 M1783.7,669.1c-0.1-4-0.2-8.1-0.4-12.1l2-0.1c0.2,4,0.3,8.1,0.4,12.2L1783.7,669.1z M586.6,645.8l-2-0.1
						c0.2-4,0.5-8.1,0.8-12.2l2,0.2C587.1,637.7,586.8,641.8,586.6,645.8z M1782.7,644.9c-0.2-4-0.5-8.1-0.9-12.1l2-0.2
						c0.3,4,0.6,8.1,0.9,12.2L1782.7,644.9z M588.5,621.6l-2-0.2c0.4-4,0.9-8.1,1.3-12.1l2,0.2C589.4,613.5,588.9,617.6,588.5,621.6
						z M1780.8,620.7c-0.4-4-0.9-8.1-1.3-12.1l2-0.2c0.5,4,0.9,8.1,1.4,12.1L1780.8,620.7z M591.4,597.5l-2-0.3c0.6-4,1.2-8,1.8-12
						l2,0.3C592.6,589.5,592,593.5,591.4,597.5z M1777.8,596.6c-0.6-4-1.2-8-1.8-12l2-0.3c0.7,4,1.3,8,1.8,12L1777.8,596.6z
						 M595.3,573.5l-2-0.4c0.7-4,1.5-8,2.3-12l2,0.4C596.8,565.5,596,569.6,595.3,573.5z M1773.9,572.6c-0.7-4-1.5-8-2.3-11.9l2-0.4
						c0.8,4,1.6,8,2.3,12L1773.9,572.6z M600.1,549.7l-2-0.4c0.9-3.9,1.8-7.9,2.8-11.9l2,0.5C602,541.8,601,545.8,600.1,549.7z
						 M1769,548.8c-0.9-3.9-1.8-7.9-2.8-11.8l2-0.5c1,3.9,1.9,7.9,2.8,11.9L1769,548.8z M606,526.2l-2-0.5c1-3.9,2.1-7.9,3.3-11.7
						l2,0.6C608.1,518.3,607,522.3,606,526.2z M1763.2,525.3c-1.1-3.9-2.2-7.8-3.3-11.7l1.9-0.6c1.1,3.9,2.2,7.8,3.3,11.7
						L1763.2,525.3z M612.7,502.8l-1.9-0.6c1.2-3.9,2.5-7.8,3.8-11.6l1.9,0.6C615.2,495.1,613.9,499,612.7,502.8z M1756.4,502
						c-1.2-3.8-2.5-7.7-3.8-11.5l1.9-0.6c1.3,3.8,2.6,7.7,3.8,11.6L1756.4,502z M620.5,479.7l-1.9-0.7c1.4-3.8,2.8-7.7,4.2-11.5
						l1.9,0.7C623.3,472.1,621.9,475.9,620.5,479.7z M1748.6,478.9c-1.4-3.8-2.8-7.6-4.2-11.4l1.9-0.7c1.4,3.8,2.9,7.6,4.2,11.4
						L1748.6,478.9z M629.2,457l-1.9-0.8c1.5-3.7,3.1-7.5,4.7-11.3l1.9,0.8C632.3,449.4,630.7,453.2,629.2,457z M1739.9,456.3
						c-1.5-3.7-3.1-7.5-4.7-11.2l1.9-0.8c1.6,3.7,3.2,7.5,4.7,11.2L1739.9,456.3z M638.8,434.6l-1.9-0.8c1.7-3.7,3.4-7.4,5.2-11.1
						l1.8,0.9C642.2,427.2,640.4,430.9,638.8,434.6z M1730.3,434c-1.7-3.7-3.4-7.3-5.1-11l1.8-0.9c1.7,3.6,3.5,7.3,5.1,11
						L1730.3,434z M649.3,412.6l-1.8-0.9c1.8-3.6,3.7-7.3,5.6-10.8l1.8,0.9C653,405.4,651.1,409,649.3,412.6z M1719.9,412.2
						c-1.8-3.6-3.7-7.2-5.6-10.8l1.8-1c1.9,3.6,3.8,7.2,5.6,10.8L1719.9,412.2z M660.7,391.1l-1.8-1c2-3.5,4-7.1,6-10.6l1.8,1
						C664.7,384,662.6,387.6,660.7,391.1z M1708.5,390.8c-2-3.5-4-7-6-10.5l1.8-1c2,3.5,4.1,7,6,10.6L1708.5,390.8z M672.9,370.1
						l-1.7-1.1c2.1-3.5,4.3-6.9,6.5-10.4l1.7,1.1C677.2,363.2,675,366.7,672.9,370.1z M1696.3,369.9c-2.1-3.4-4.3-6.9-6.4-10.3
						l1.7-1.1c2.2,3.4,4.3,6.9,6.4,10.3L1696.3,369.9z M686,349.6l-1.7-1.1c2.2-3.4,4.6-6.8,6.9-10.1l1.7,1.2
						C690.6,342.9,688.3,346.3,686,349.6z M1683.2,349.5c-2.2-3.3-4.5-6.7-6.8-10l1.7-1.2c2.3,3.3,4.6,6.7,6.9,10L1683.2,349.5z
						 M699.9,329.7l-1.6-1.2c2.4-3.3,4.8-6.6,7.3-9.8l1.6,1.2C704.8,323.1,702.3,326.4,699.9,329.7z M1669.4,329.6
						c-2.4-3.3-4.8-6.5-7.2-9.7l1.6-1.2c2.4,3.2,4.9,6.5,7.3,9.8L1669.4,329.6z M714.6,310.3L713,309c2.5-3.2,5.1-6.4,7.7-9.5
						l1.6,1.3C719.7,304,717.1,307.1,714.6,310.3z M1654.7,310.3c-2.5-3.2-5.1-6.3-7.6-9.4l1.6-1.3c2.6,3.1,5.1,6.3,7.7,9.5
						L1654.7,310.3z M730.1,291.6l-1.5-1.3c2.6-3.1,5.3-6.1,8-9.2l1.5,1.4C735.4,285.4,732.7,288.5,730.1,291.6z M1639.3,291.6
						c-2.6-3.1-5.3-6.1-8-9.1l1.5-1.4c2.7,3,5.4,6.1,8,9.2L1639.3,291.6z M1623.1,273.5c-2.8-3-5.6-5.9-8.4-8.8l1.5-1.4
						c2.8,2.9,5.6,5.9,8.4,8.8L1623.1,273.5z M746.3,273.5l-1.5-1.4c2.8-3,5.6-5.9,8.4-8.8l1.5,1.4
						C751.9,267.6,749,270.5,746.3,273.5z M1606.2,256c-2.9-2.8-5.8-5.7-8.7-8.5l1.4-1.5c2.9,2.8,5.9,5.6,8.7,8.5L1606.2,256z
						 M763.2,256l-1.4-1.4c2.9-2.8,5.8-5.7,8.7-8.5l1.4,1.5C769,250.4,766.1,253.2,763.2,256z M780.8,239.3l-1.4-1.5
						c3-2.7,6-5.5,9.1-8.1l1.3,1.5C786.8,233.9,783.8,236.6,780.8,239.3z M1588.6,239.3c-3-2.7-6-5.5-9.1-8.1l1.3-1.5
						c3,2.7,6.1,5.4,9.1,8.1L1588.6,239.3z M799.1,223.3l-1.3-1.6c3.1-2.6,6.2-5.2,9.4-7.7l1.3,1.6
						C805.3,218.1,802.1,220.7,799.1,223.3z M1570.3,223.3c-3.1-2.6-6.2-5.2-9.4-7.7l1.3-1.6c3.2,2.5,6.3,5.2,9.4,7.8L1570.3,223.3z
						 M817.9,208.1l-1.2-1.6c3.2-2.5,6.5-5,9.7-7.4l1.2,1.6C824.4,203.1,821.1,205.6,817.9,208.1z M1551.4,208
						c-3.2-2.5-6.5-4.9-9.7-7.3l1.2-1.6c3.2,2.4,6.5,4.9,9.7,7.4L1551.4,208z M837.4,193.6l-1.2-1.7c3.3-2.3,6.7-4.7,10-7l1.1,1.7
						C844,188.9,840.7,191.3,837.4,193.6z M1531.9,193.5c-3.3-2.3-6.6-4.7-10-7l1.1-1.7c3.3,2.3,6.7,4.6,10,7L1531.9,193.5z
						 M857.4,179.9l-1.1-1.7c3.4-2.2,6.8-4.4,10.2-6.5l1.1,1.7C864.2,175.5,860.8,177.7,857.4,179.9z M1511.8,179.8
						c-3.4-2.2-6.8-4.4-10.2-6.5l1.1-1.7c3.4,2.1,6.9,4.4,10.3,6.6L1511.8,179.8z M878,167.1l-1-1.7c3.5-2.1,7-4.1,10.5-6.1l1,1.8
						C885,163,881.4,165,878,167.1z M1491.2,167c-3.5-2.1-7-4.1-10.5-6.1l1-1.8c3.5,2,7.1,4.1,10.5,6.1L1491.2,167z M899,155.1
						l-1-1.8c3.5-1.9,7.2-3.8,10.7-5.7l0.9,1.8C906.2,151.3,902.6,153.2,899,155.1z M1470,154.9c-3.6-1.9-7.2-3.8-10.8-5.7l0.9-1.8
						c3.6,1.9,7.2,3.8,10.8,5.7L1470,154.9z M920.5,144l-0.9-1.8c3.6-1.8,7.3-3.5,11-5.3l0.9,1.8C927.8,140.4,924.1,142.2,920.5,144
						z M1448.4,143.7c-3.6-1.8-7.3-3.5-11-5.3l0.9-1.8c3.7,1.7,7.4,3.5,11,5.3L1448.4,143.7z M942.5,133.7l-0.8-1.9
						c3.7-1.6,7.4-3.2,11.2-4.8l0.8,1.9C949.9,130.5,946.1,132.1,942.5,133.7z M1426.3,133.5c-3.7-1.6-7.5-3.2-11.2-4.8l0.8-1.9
						c3.7,1.6,7.5,3.2,11.2,4.8L1426.3,133.5z M964.8,124.4l-0.7-1.9c3.8-1.5,7.6-3,11.4-4.4l0.7,1.9
						C972.4,121.4,968.5,122.9,964.8,124.4z M1403.8,124.1c-3.8-1.5-7.6-2.9-11.4-4.3l0.7-1.9c3.8,1.4,7.6,2.9,11.4,4.4
						L1403.8,124.1z M987.6,115.9l-0.7-1.9c3.8-1.3,7.7-2.6,11.5-3.9l0.6,1.9C995.2,113.3,991.4,114.6,987.6,115.9z M1381,115.6
						c-3.8-1.3-7.7-2.6-11.6-3.9l0.6-1.9c3.8,1.2,7.7,2.6,11.6,3.9L1381,115.6z M1010.6,108.4l-0.6-1.9c3.9-1.2,7.8-2.3,11.7-3.4
						l0.5,2C1018.4,106.1,1014.5,107.2,1010.6,108.4z M1357.8,108.1c-3.9-1.2-7.8-2.3-11.7-3.4l0.5-2c3.9,1.1,7.8,2.2,11.7,3.4
						L1357.8,108.1z M1034,101.8l-0.5-2c3.9-1,7.9-2,11.8-2.9l0.5,2C1041.9,99.8,1037.9,100.8,1034,101.8z M1334.4,101.6
						c-3.9-1-7.9-2-11.8-2.9l0.5-2c3.9,0.9,7.9,1.9,11.8,2.9L1334.4,101.6z M1057.7,96.2l-0.4-2c3.9-0.9,8-1.7,11.9-2.4l0.4,2
						C1065.6,94.6,1061.6,95.4,1057.7,96.2z M1310.8,96c-3.9-0.8-7.9-1.7-11.9-2.4l0.4-2c4,0.8,8,1.6,11.9,2.4L1310.8,96z
						 M1081.5,91.6l-0.3-2c4-0.7,8-1.3,12-2l0.3,2C1089.5,90.3,1085.5,90.9,1081.5,91.6z M1286.9,91.4c-4-0.7-8-1.3-12-1.9l0.3-2
						c4,0.6,8.1,1.3,12,1.9L1286.9,91.4z M1105.5,87.9l-0.3-2c4-0.5,8.1-1,12.1-1.5l0.2,2C1113.5,86.9,1109.5,87.4,1105.5,87.9z
						 M1262.9,87.8c-4-0.5-8-1-12.1-1.5l0.2-2c4,0.4,8.1,0.9,12.1,1.5L1262.9,87.8z M1129.6,85.2l-0.2-2c4-0.4,8.1-0.7,12.1-1l0.1,2
						C1137.7,84.5,1133.7,84.9,1129.6,85.2z M1238.8,85.2c-4-0.4-8.1-0.7-12.1-1l0.1-2c4,0.3,8.1,0.6,12.1,1L1238.8,85.2z
						 M1153.9,83.5l-0.1-2c4-0.2,8.1-0.4,12.2-0.5l0.1,2C1162,83.2,1157.9,83.3,1153.9,83.5z M1214.5,83.5c-4-0.2-8.1-0.4-12.1-0.5
						l0.1-2c4,0.1,8.1,0.3,12.2,0.5L1214.5,83.5z M1178.1,82.8l0-2c4.1,0,8.1,0,12.2,0l0,2C1186.2,82.7,1182.2,82.7,1178.1,82.8z"/>
				</g>
				<g>
					<path class="st1" d="M1184.7,1236.9c-74.9,0-147.6-14.7-216-43.6c-66.1-28-125.4-68-176.4-118.9c-51-51-91-110.3-118.9-176.4
						c-28.9-68.4-43.6-141.1-43.6-216c0-74.9,14.7-147.6,43.6-216c28-66.1,68-125.4,118.9-176.4c51-51,110.3-91,176.4-118.9
						c68.4-28.9,141.1-43.6,216-43.6c74.9,0,147.6,14.7,216,43.6c66.1,28,125.4,68,176.4,118.9c51,51,91,110.3,118.9,176.4
						c28.9,68.4,43.6,141.1,43.6,216c0,74.9-14.7,147.6-43.6,216c-28,66.1-68,125.4-118.9,176.4c-51,51-110.3,91-176.4,118.9
						C1332.3,1222.3,1259.6,1236.9,1184.7,1236.9z M1184.7,127.9c-305.5,0-554,248.5-554,554c0,305.5,248.5,554,554,554
						s554-248.5,554-554C1738.7,376.4,1490.2,127.9,1184.7,127.9z"/>
				</g>
			</g>
		</g>
		<g>
			<path class="st2" d="M544.9,698.8l-17.9,15c-0.6,0.5-1.4,0.8-2.4,0.9c-1,0.1-1.8-0.2-2.4-0.7l-14.7-13c-3.8,1.4-7.1,2.4-10,3
				c-1.1,4.1-2.4,10.1-3.9,17.9c-0.2,1.1-0.6,1.9-1.3,2.5c-0.7,0.6-1.5,0.9-2.5,0.8c-3.2,0.2-8.3,0-15.4-0.7
				c-7.1-0.7-11.1-1.6-12.1-2.8c-0.5-0.6-0.9-1.5-1-2.7l-0.6-18.4c-3.2-1.3-6.3-2.9-9.2-4.8c-8,5.2-13.7,8.6-17,10.2
				c-1.8,0.9-3.4,0.5-4.7-1l-15-17.9c-0.6-0.8-1-1.6-1-2.6c0-0.9,0.3-1.7,1-2.4l13-14.7c-1.3-3.4-2.4-6.6-3.1-9.8l-18.1-4.2
				c-0.9-0.1-1.7-0.6-2.4-1.4c-0.6-0.8-0.9-1.7-0.8-2.8c0.5-11.9,1.3-20.1,2.4-24.6c0.2-0.8,0.7-1.5,1.4-2.1
				c0.6-0.5,1.4-0.8,2.4-0.9c1.8-0.1,4.7-0.3,8.8-0.4c4.1-0.1,7.2-0.2,9.3-0.4c1.5-3.7,3.2-7,5.2-10l-10.2-16.6
				c-0.5-0.8-0.6-1.6-0.4-2.5c0.2-0.9,0.7-1.6,1.4-2.2l17.9-15c0.6-0.5,1.4-0.8,2.4-0.9c1-0.1,1.7,0.2,2.3,0.7l14.8,13.1
				c3.1-1.3,6.5-2.3,10.1-3.1c1.3-4.7,2.6-10.7,3.9-17.9c0.2-1.1,0.6-1.9,1.3-2.4c0.5-0.4,1.4-0.7,2.5-0.8c3.1-0.2,8.2,0,15.3,0.7
				c7.1,0.7,11.2,1.6,12.1,2.8c0.6,0.7,0.9,1.6,0.9,2.8l0.7,18.4c3.2,1.3,6.3,2.9,9.2,4.8c8-5.2,13.7-8.7,17-10.2
				c1.8-0.9,3.4-0.5,4.7,1l15,17.9c0.6,0.8,0.9,1.6,1,2.6c0,0.9-0.3,1.7-1,2.4l-13,14.7c1.3,3.4,2.4,6.6,3.1,9.8l18.2,4.2
				c0.9,0.1,1.7,0.5,2.3,1.3c0.6,0.7,0.9,1.6,0.9,2.7c-0.6,12.3-1.5,20.5-2.6,24.8c-0.1,0.7-0.6,1.4-1.3,2c-0.6,0.5-1.4,0.8-2.4,0.9
				c-1.8,0.1-4.7,0.3-8.8,0.4c-4.1,0.1-7.2,0.2-9.3,0.4c-1.5,3.6-3.2,6.9-5.1,9.9l10.1,16.7c0.5,0.8,0.6,1.6,0.4,2.5
				C546.1,697.4,545.6,698.2,544.9,698.8z M481.9,670.9c7.4,0.7,14-1.4,19.7-6.1c5.7-4.8,8.9-10.8,9.6-18.3c0.7-7.4-1.4-14-6.1-19.7
				c-4.8-5.7-10.8-8.9-18.3-9.6c-7.4-0.7-14,1.4-19.7,6.1c-5.7,4.8-8.9,10.8-9.6,18.3c-0.7,7.4,1.4,14,6.1,19.7
				C468.4,667.1,474.5,670.3,481.9,670.9z"/>
		</g>
		<g>
			<path class="st3" d="M1210.3,413.7l-25.6,21.4c-0.9,0.8-2.1,1.2-3.4,1.3c-1.4,0.1-2.5-0.3-3.4-1.1l-21-18.6
				c-5.4,2-10.1,3.4-14.2,4.3c-1.6,5.9-3.5,14.4-5.6,25.6c-0.3,1.5-0.9,2.7-1.9,3.6c-1,0.8-2.2,1.2-3.5,1.2c-4.6,0.3-11.9,0-22-1
				c-10.1-1-15.8-2.3-17.2-4c-0.8-0.9-1.3-2.2-1.5-3.9l-0.8-26.3c-4.6-1.9-9-4.2-13.1-6.8c-11.5,7.5-19.5,12.3-24.2,14.6
				c-2.6,1.3-4.8,0.8-6.7-1.5l-21.4-25.6c-0.9-1.1-1.4-2.3-1.4-3.6c0-1.3,0.4-2.5,1.4-3.4l18.5-20.9c-1.9-4.8-3.4-9.4-4.4-13.9
				l-25.9-5.9c-1.3-0.2-2.5-0.9-3.4-2c-0.9-1.1-1.3-2.4-1.1-3.9c0.7-17,1.8-28.7,3.5-35.2c0.3-1.2,1-2.2,2-3
				c0.9-0.8,2.1-1.2,3.4-1.3c2.6-0.2,6.8-0.4,12.6-0.5c5.8-0.2,10.2-0.3,13.3-0.6c2.1-5.3,4.6-10,7.5-14.2l-14.5-23.7
				c-0.7-1.1-0.9-2.3-0.6-3.6c0.3-1.3,0.9-2.3,1.9-3.2l25.6-21.4c0.9-0.8,2.1-1.2,3.4-1.3c1.4-0.1,2.5,0.2,3.3,0.9l21.1,18.7
				c4.4-1.9,9.2-3.3,14.3-4.4c1.8-6.7,3.7-15.3,5.6-25.6c0.3-1.5,0.9-2.7,1.8-3.5c0.8-0.6,1.9-1,3.5-1.2c4.4-0.3,11.7,0,21.9,1
				c10.1,1,15.9,2.3,17.3,4c0.8,1,1.3,2.3,1.4,4l1,26.2c4.6,1.9,9,4.2,13.1,6.8c11.5-7.5,19.5-12.3,24.2-14.6
				c2.6-1.3,4.8-0.8,6.7,1.5l21.4,25.6c0.9,1.1,1.4,2.3,1.4,3.6c0,1.4-0.4,2.5-1.4,3.4l-18.5,20.9c1.9,4.8,3.4,9.4,4.4,13.9l26,6.1
				c1.3,0.1,2.4,0.7,3.3,1.9c0.8,1,1.3,2.3,1.3,3.8c-0.9,17.5-2.1,29.3-3.7,35.4c-0.2,1-0.8,2-1.9,2.9c-0.9,0.8-2.1,1.2-3.4,1.3
				c-2.6,0.2-6.8,0.4-12.6,0.5c-5.8,0.2-10.2,0.3-13.3,0.6c-2.2,5.2-4.6,9.9-7.3,14.1l14.4,23.8c0.7,1.1,0.9,2.3,0.6,3.6
				C1211.9,411.8,1211.3,412.8,1210.3,413.7z M1120.4,374c10.6,0.9,19.9-2,28.1-8.8c8.1-6.8,12.7-15.5,13.6-26.1
				c0.9-10.6-2-19.9-8.8-28.1c-6.8-8.1-15.5-12.7-26.1-13.6c-10.6-0.9-19.9,2-28.1,8.8c-8.1,6.8-12.7,15.5-13.6,26.1
				c-1,10.6,2,19.9,8.8,28.1C1101.2,368.5,1109.8,373,1120.4,374z"/>
		</g>
		<path class="st4" d="M711.1,931.2v-13.5h-216l-92.5-92.5l-0.2,0.2l0.2-0.7H357l-92.1-92.7H157.7c-3.1-14-15.7-24.6-30.6-24.6
			c-17.3,0-31.4,14.1-31.4,31.4c0,17.3,14.1,31.4,31.4,31.4c15,0,27.6-10.6,30.6-24.7h100.9l79.2,79.2h-42.3
			c-3.1-14-15.7-24.6-30.6-24.6c-17.3,0-31.4,14.1-31.4,31.4c0,17.3,14.1,31.4,31.4,31.4c15,0,27.6-10.6,30.6-24.7h100.9l54.7,54.7
			H220.6c-3.1-14-15.7-24.6-30.6-24.6c-17.3,0-31.4,14.1-31.4,31.4c0,17.3,14.1,31.4,31.4,31.4c15,0,27.6-10.6,30.6-24.7h244.2
			l24.5,24.5l0.1-0.1l-0.1,0.3h59.1l-79.5,79.5H368c-3.1-14.1-15.6-24.7-30.6-24.7c-17.3,0-31.4,14.1-31.4,31.4
			c0,17.3,14.1,31.4,31.4,31.4c15,0,27.5-10.5,30.6-24.6h107.3l-0.1-0.6l92.4-92.4H711.1z M127.1,756.6c-9.9,0-17.9-8-17.9-17.9
			c0-9.9,8-17.9,17.9-17.9s17.9,8,17.9,17.9C144.9,748.6,136.9,756.6,127.1,756.6z M264.9,849.3c-9.9,0-17.9-8-17.9-17.9
			c0-9.9,8-17.9,17.9-17.9c9.9,0,17.9,8,17.9,17.9C282.8,841.3,274.8,849.3,264.9,849.3z M190,917.6c-9.9,0-17.9-8-17.9-17.9
			c0-9.9,8-17.9,17.9-17.9c9.9,0,17.9,8,17.9,17.9C207.8,909.6,199.8,917.6,190,917.6z M337.4,1035.2c-9.9,0-17.9-8-17.9-17.9
			c0-9.9,8-17.9,17.9-17.9c9.9,0,17.9,8,17.9,17.9C355.2,1027.2,347.2,1035.2,337.4,1035.2z"/>
		<path class="st4" d="M1635.5,657.8l92.4,92.4l-0.1,0.6H1835c3.1,14,15.7,24.6,30.6,24.6c17.3,0,31.4-14.1,31.4-31.4
			c0-17.3-14.1-31.4-31.4-31.4c-15,0-27.6,10.6-30.6,24.7h-100.9l-79.5-79.5h59.1l-0.1-0.3l0.1,0.1l24.5-24.5h244.2
			c3.1,14.1,15.6,24.7,30.6,24.7c17.3,0,31.4-14.1,31.4-31.4c0-17.3-14.1-31.4-31.4-31.4c-15,0-27.5,10.5-30.6,24.6h-230.7
			l54.7-54.7h100.9c3.1,14.1,15.6,24.7,30.6,24.7c17.3,0,31.4-14.1,31.4-31.4c0-17.3-14.1-31.4-31.4-31.4c-15,0-27.5,10.5-30.6,24.6
			h-42.3l79.2-79.2h100.9c3.1,14.1,15.6,24.7,30.6,24.7c17.3,0,31.4-14.1,31.4-31.4c0-17.3-14.1-31.4-31.4-31.4
			c-15,0-27.5,10.5-30.6,24.6h-107.2l-92.1,92.7h-45.6l0.2,0.7l-0.2-0.2l-92.5,92.5h-216v13.5H1635.5z M2058,465.4
			c0-9.9,8-17.9,17.9-17.9c9.9,0,17.9,8,17.9,17.9c0,9.9-8,17.9-17.9,17.9C2066.1,483.3,2058,475.2,2058,465.4z M1920.2,558.1
			c0-9.9,8-17.9,17.9-17.9c9.9,0,17.9,8,17.9,17.9c0,9.9-8,17.9-17.9,17.9C1928.2,576,1920.2,567.9,1920.2,558.1z M1995.2,626.4
			c0-9.9,8-17.9,17.9-17.9c9.9,0,17.9,8,17.9,17.9c0,9.9-8,17.9-17.9,17.9C2003.2,644.2,1995.2,636.2,1995.2,626.4z M1847.8,744
			c0-9.9,8-17.9,17.9-17.9c9.9,0,17.9,8,17.9,17.9c0,9.9-8,17.9-17.9,17.9C1855.8,761.8,1847.8,753.8,1847.8,744z"/>
		<path class="st5" d="M1829.6,336.7h-155.3c-5.5,0-9.9,4.4-9.9,9.9v12.9c0,5.5,4.4,9.9,9.9,9.9h22.8V639H696.6V487.6h19.8
			c5.5,0,9.9-4.4,9.9-9.9v-12.9c0-5.5-4.4-9.9-9.9-9.9h-57.7v-21.5h35.6c8,0,14.5-6.5,14.5-14.5v-71.2c0-8-6.5-14.5-14.5-14.5h-35.6
			v-40c0-8-6.5-14.5-14.5-14.5h-16.7c-8,0-14.5,6.5-14.5,14.5v40h-16.7l-223.2-87l-0.2-0.6l-0.8,0.2l-15.2-5.9
			c0.4-2-0.5-4.1-2.4-5.2l-0.4-0.2c-2.3-1.3-5.2-0.5-6.5,1.8L330.5,267c-1.3,2.3-0.5,5.2,1.8,6.5l0.4,0.2c1.1,0.6,2.4,0.8,3.6,0.4
			l13.8,10.4l0.3,1.2l0.9-0.3v707.8h-10.9v65.9h13.1c-0.2,0.4-0.3,0.7-0.3,1.2v23.3c-11.6,1.2-20.7,11.1-20.7,23.1
			c0,12.8,10.4,23.2,23.2,23.2c12.8,0,23.2-10.4,23.2-23.2c0-1.4-1.1-2.5-2.5-2.5c-1.4,0-2.5,1.1-2.5,2.5c0,10.1-8.2,18.3-18.3,18.3
			c-10.1,0-18.3-8.2-18.3-18.3c0-10.1,8.2-18.3,18.3-18.3c1.4,0,2.5-1.1,2.5-2.5c0-0.1,0-0.1,0-0.2c0-0.1,0-0.1,0-0.2v-25.4
			c0-0.4-0.1-0.8-0.3-1.2H371v-65.9h-10.9V292l167.9,126.5v0.4c0,8,6.5,14.5,14.5,14.5H613V455h-51.9c-5.5,0-9.9,4.4-9.9,9.9v12.9
			c0,5.5,4.4,9.9,9.9,9.9h22.8V639h-22.8c-5.5,0-9.9,4.4-9.9,9.9v12.9c0,5.5,4.4,9.9,9.9,9.9h22.8v246.4h-22.8
			c-5.5,0-9.9,4.4-9.9,9.9v12.9c0,5.5,4.4,9.9,9.9,9.9h22.8v305.1h23.8v-161.3c0.5-0.2,1-0.5,1.4-0.9l34.2-29.7l29.7,25.8v166.2
			h23.7V950.7h540.2h9.3l0.3,1.1h70.1l-0.3-1.1h9.3H1697v305.1h23.7v-235.5c0.5-0.2,1-0.5,1.4-0.9l34.2-29.7l29.7,25.8v240.4h23.8
			V369.3h19.8c5.5,0,9.9-4.4,9.9-9.9v-12.9C1839.5,341.1,1835.1,336.7,1829.6,336.7z M524.4,313.6l-44.6,12.7l-9.6-33.8L524.4,313.6
			z M450,284.7l-29.8,8.4l-6.4-22.5L450,284.7z M399.7,265l-19.7,5.6l-4.2-14.9L399.7,265z M354.4,277.9l-13.1-9.9l11.8-21.2
			l15.1,5.9l5.6,19.6L354.4,277.9z M360.9,282.8l14.7-4.2l5.5,19.4L360.9,282.8z M381.8,276.9l25.1-7.1l7.1,25.1l-25.1,7.1
			L381.8,276.9z M393.6,307.4l22.3-6.3l8.3,29.4L393.6,307.4z M432.7,336.9l-10.7-37.6l37.9-10.8l2.7,1l10.9,38.5l-38.2,10.8
			L432.7,336.9z M441.9,343.8l33.5-9.5l12.6,44.2L441.9,343.8z M527.9,408.7L497.8,386l30.1-13.4V408.7z M527.9,347.7v17.7
			l-32.9,14.7l-13.5-47.6l47.6-13.5l2.6,19C529.4,340.5,527.9,344,527.9,347.7z M542.5,333.2c-1.7,0-3.3,0.3-4.8,0.8l-2.2-16
			l39,15.2H542.5z M670,487.6l-26.8,23.3l-26.8-23.3H670z M607.6,495.7l26.6,23l-26.6,23V495.7z M607.6,679.8l26.6,23l-26.6,23
			V679.8z M616.4,671.7H670L643.2,695L616.4,671.7z M607.6,1079.1V1033l26.6,23L607.6,1079.1z M672.9,1074l-20.6-17.9l20.6-17.9
			V1074z M672.9,1022.4l-29.7,25.8l-34.2-29.7c-0.4-0.4-0.9-0.7-1.4-0.9v-66.9h65.3V1022.4z M672.9,918.1h-65.3V741.3
			c0.5-0.2,1-0.5,1.4-0.9l34.2-29.7l29.7,25.8V918.1z M672.9,720.7l-20.6-17.9l20.6-17.9V720.7z M672.9,639h-65.3v-81.8
			c0.5-0.2,1-0.5,1.4-0.9l34.2-29.7l29.7,25.8V639z M672.9,536.7l-20.6-17.9l20.6-17.9V536.7z M1697,918.1H696.6V671.7H1697V918.1z
			 M1783.2,369.3l-26.8,23.3l-26.8-23.3H1783.2z M1720.8,377.4l26.6,23.1l-26.6,23.1V377.4z M1720.8,679.8l26.6,23.1l-26.6,23.1
			V679.8z M1729.6,671.7h53.6l-26.8,23.3L1729.6,671.7z M1720.8,1004.9v-46.1l26.6,23.1L1720.8,1004.9z M1729.6,950.7h53.6
			l-26.8,23.3L1729.6,950.7z M1786.1,999.7l-20.6-17.9l20.6-17.9V999.7z M1786.1,918.1h-65.3V741.3c0.5-0.2,1-0.5,1.4-0.9l34.2-29.7
			l29.7,25.8V918.1z M1786.1,720.7l-20.6-17.9l20.6-17.9V720.7z M1786.1,639h-65.3V438.9c0.5-0.2,1-0.5,1.4-0.9l34.2-29.7l29.7,25.8
			V639z M1786.1,418.4l-20.6-17.9l20.6-17.9V418.4z"/>
		<path class="st6" d="M2124.2,1241.4c0,14.8-12,26.7-26.7,26.7H61.1c-14.8,0-26.7-12-26.7-26.7l0,0c0-14.8,12-26.7,26.7-26.7
			h2036.3C2112.2,1214.6,2124.2,1226.6,2124.2,1241.4L2124.2,1241.4z"/>
		<g>
			<path class="st7" d="M1597.1,377.6H575.9c-25.2,0-45.6,20.4-45.6,45.6v551.7h1112.4V423.2C1642.7,398,1622.3,377.6,1597.1,377.6z
				"/>
			<rect x="566.7" y="422.1" class="st8" width="1035.9" height="507.7"/>
			<path class="st4" d="M530.3,1025.1c0,25.2,20.4,45.6,45.6,45.6h1021.2c25.2,0,45.6-20.4,45.6-45.6v-50.2H530.3V1025.1z"/>
			<path class="st4" d="M1196.2,1159.1v-88.3H974.5v88.3c0,27.4-59,54.5-59,64.4c0,9.9,8,17.9,17.9,17.9h41.1h221.7h39
				c9.9,0,17.9-8,17.9-17.9C1253.1,1213.6,1196.2,1184.6,1196.2,1159.1z"/>
			<rect x="974.5" y="1070.7" class="st9" width="221.7" height="28.7"/>
		</g>
		<g>
			<path class="st4" d="M1018.9,140.5c0.1,0.3,0.2,0.7,0.2,1.1c0,0.4,0,0.8,0,1.2c0,0.9-0.1,1.8-0.3,2.7c-0.2,0.8-0.5,1.6-1,2.2
				c-0.5,0.6-1.1,1.1-1.8,1.5c-0.8,0.4-1.7,0.6-2.9,0.6c-1.1,0-2.2-0.2-3.3-0.7c-1.1-0.5-2.4-1.1-4-2l-16.8-9.7c-1.4-1.8-2-4.1-2-7
				c0-2.2,0.3-3.9,0.9-5.1c0.6-1.2,1.5-2.1,2.7-2.8l21.5-12.5c2.6,0.7,4.3,1.6,5.2,2.8c0.9,1.2,1.4,2.4,1.4,3.8
				c0,1.8-0.5,3.2-1.4,4.3c-0.9,1-2.3,2-4,2.9l-13.8,7L1018.9,140.5z"/>
			<path class="st4" d="M1064.5,164.7c-0.3-0.5-0.6-1.2-0.9-2.2c-0.3-0.9-0.5-1.9-0.5-2.9c0-1.9,0.4-3.3,1.3-4.2
				c0.9-0.8,2-1.3,3.4-1.3h33.7c0.3,0.5,0.6,1.2,0.9,2.2c0.4,0.9,0.5,1.9,0.5,2.9c0,1.9-0.4,3.3-1.3,4.2c-0.9,0.8-2,1.3-3.4,1.3
				H1064.5z"/>
			<path class="st4" d="M1155.5,158.3c-0.7,0.1-1.4,0.2-2.1,0.2c-0.7,0-1.3,0-1.9,0c-2.2,0-3.9-0.5-5.1-1.4
				c-1.2-0.9-1.8-2.5-1.8-4.5c0-1.4,0.2-2.8,0.6-4.3c0.4-1.4,0.8-2.7,1.1-3.8l13.8-49.7c0.8-0.1,1.5-0.2,2.2-0.2c0.7,0,1.3,0,1.9,0
				c2.1,0,3.7,0.4,5,1.3c1.2,0.9,1.8,2.3,1.8,4.3c0,1.5-0.2,3-0.6,4.3c-0.4,1.4-0.8,2.7-1.2,4.1L1155.5,158.3z"/>
			<path class="st4" d="M1213.1,119c-0.1-0.3-0.2-0.7-0.2-1.1c0-0.4,0-0.8,0-1.2c0-0.9,0.1-1.8,0.3-2.7c0.2-0.8,0.5-1.6,1-2.2
				c0.5-0.6,1.1-1.1,1.8-1.5c0.8-0.4,1.7-0.6,2.9-0.6c1.1,0,2.2,0.2,3.3,0.7c1.1,0.5,2.4,1.1,4,2l16.8,9.7c1.4,1.8,2,4.1,2,7
				c0,2.2-0.3,3.9-0.9,5.1c-0.6,1.2-1.5,2.1-2.7,2.8l-21.5,12.5c-2.6-0.7-4.3-1.6-5.2-2.8c-0.9-1.2-1.4-2.4-1.4-3.8
				c0-1.8,0.5-3.3,1.4-4.3c0.9-1,2.3-2,4-2.9l13.8-7L1213.1,119z"/>
		</g>
		<g>
			<rect x="877.2" y="422.1" class="st4" width="725.4" height="507.7"/>
			<rect x="1364.1" y="605.3" class="st10" width="199.5" height="132.2"/>
			<g>
				<rect x="566.7" y="422.1" class="st11" width="310.5" height="80.7"/>
				<path class="st12" d="M621,462.5c0,10.1-8.2,18.2-18.2,18.2c-10.1,0-18.2-8.2-18.2-18.2c0-10.1,8.2-18.2,18.2-18.2
					C612.8,444.2,621,452.4,621,462.5z"/>
				<path class="st10" d="M675.7,462.5c0,10.1-8.2,18.2-18.2,18.2c-10.1,0-18.2-8.2-18.2-18.2c0-10.1,8.2-18.2,18.2-18.2
					C667.5,444.2,675.7,452.4,675.7,462.5z"/>
				<path class="st5" d="M730.4,462.5c0,10.1-8.2,18.2-18.2,18.2c-10.1,0-18.2-8.2-18.2-18.2c0-10.1,8.2-18.2,18.2-18.2
					C722.3,444.2,730.4,452.4,730.4,462.5z"/>
				<path class="st5" d="M675.7,525.9c0,5.5-4.5,10-10,10h-71.2c-5.5,0-10-4.5-10-10l0,0c0-5.5,4.5-10,10-10h71.2
					C671.2,515.9,675.7,520.4,675.7,525.9L675.7,525.9z"/>
				<path class="st5" d="M675.7,846.1c0,5.5-4.5,10-10,10h-71.2c-5.5,0-10-4.5-10-10l0,0c0-5.5,4.5-10,10-10h71.2
					C671.2,836.1,675.7,840.6,675.7,846.1L675.7,846.1z"/>
				<path class="st10" d="M704,563.3c0,5.5-4.5,10-10,10h-44.7c-5.5,0-10-4.5-10-10l0,0c0-5.5,4.5-10,10-10h44.7
					C699.5,553.3,704,557.8,704,563.3L704,563.3z"/>
				<path class="st10" d="M704,878c0,5.5-4.5,10-10,10h-44.7c-5.5,0-10-4.5-10-10l0,0c0-5.5,4.5-10,10-10h44.7
					C699.5,868,704,872.5,704,878L704,878z"/>
				<path class="st13" d="M846.3,595.2c0,5.5-4.5,10-10,10h-187c-5.5,0-10-4.5-10-10l0,0c0-5.5,4.5-10,10-10h187
					C841.8,585.2,846.3,589.7,846.3,595.2L846.3,595.2z"/>
				<path class="st13" d="M747.8,626.3c0,5.5-4.5,10-10,10h-88.5c-5.5,0-10-4.5-10-10l0,0c0-5.5,4.5-10,10-10h88.5
					C743.3,616.2,747.8,620.7,747.8,626.3L747.8,626.3z"/>
				<path class="st13" d="M846.3,626.3c0,5.5-4.5,10-10,10h-72.1c-5.5,0-10-4.5-10-10l0,0c0-5.5,4.5-10,10-10h72.1
					C841.8,616.2,846.3,620.7,846.3,626.3L846.3,626.3z"/>
				<path class="st13" d="M699,655.5c0,5.5-4.5,10-10,10h-39.7c-5.5,0-10-4.5-10-10l0,0c0-5.5,4.5-10,10-10h39.7
					C694.5,645.4,699,649.9,699,655.5L699,655.5z"/>
				<path class="st13" d="M846.3,655.5c0,5.5-4.5,10-10,10H717.2c-5.5,0-10-4.5-10-10l0,0c0-5.5,4.5-10,10-10h119.1
					C841.8,645.4,846.3,649.9,846.3,655.5L846.3,655.5z"/>
				<path class="st10" d="M704,691.9c0,5.5-4.5,10-10,10h-44.7c-5.5,0-10-4.5-10-10l0,0c0-5.5,4.5-10,10-10h44.7
					C699.5,681.9,704,686.4,704,691.9L704,691.9z"/>
				<path class="st10" d="M704,816.5c0,5.5-4.5,10-10,10h-44.7c-5.5,0-10-4.5-10-10l0,0c0-5.5,4.5-10,10-10h44.7
					C699.5,806.4,704,810.9,704,816.5L704,816.5z"/>
				<path class="st13" d="M846.3,723.9c0,5.5-4.5,10-10,10h-187c-5.5,0-10-4.5-10-10l0,0c0-5.5,4.5-10,10-10h187
					C841.8,713.8,846.3,718.3,846.3,723.9L846.3,723.9z"/>
				<path class="st13" d="M747.8,754.9c0,5.5-4.5,10-10,10h-88.5c-5.5,0-10-4.5-10-10l0,0c0-5.5,4.5-10,10-10h88.5
					C743.3,744.9,747.8,749.3,747.8,754.9L747.8,754.9z"/>
				<path class="st13" d="M846.3,754.9c0,5.5-4.5,10-10,10h-72.1c-5.5,0-10-4.5-10-10l0,0c0-5.5,4.5-10,10-10h72.1
					C841.8,744.9,846.3,749.3,846.3,754.9L846.3,754.9z"/>
				<path class="st13" d="M699,784.1c0,5.5-4.5,10-10,10h-39.7c-5.5,0-10-4.5-10-10l0,0c0-5.5,4.5-10,10-10h39.7
					C694.5,774,699,778.5,699,784.1L699,784.1z"/>
				<path class="st13" d="M846.3,784.1c0,5.5-4.5,10-10,10H717.2c-5.5,0-10-4.5-10-10l0,0c0-5.5,4.5-10,10-10h119.1
					C841.8,774,846.3,778.5,846.3,784.1L846.3,784.1z"/>
				<path class="st13" d="M699,908.6c0,5.5-4.5,10-10,10h-39.7c-5.5,0-10-4.5-10-10l0,0c0-5.5,4.5-10,10-10h39.7
					C694.5,898.6,699,903.1,699,908.6L699,908.6z"/>
				<path class="st13" d="M846.3,908.6c0,5.5-4.5,10-10,10H717.2c-5.5,0-10-4.5-10-10l0,0c0-5.5,4.5-10,10-10h119.1
					C841.8,898.6,846.3,903.1,846.3,908.6L846.3,908.6z"/>
			</g>
			<rect x="911" y="453.8" class="st8" width="658.3" height="119.5"/>
			<rect x="911" y="605.3" class="st5" width="132.2" height="132.2"/>
			<path class="st14" d="M1221.3,622.3c0,3.4-2.3,6.1-5,6.1h-143.2c-2.8,0-5-2.7-5-6.1l0,0c0-3.4,2.3-6.1,5-6.1h143.2
				C1219.1,616.2,1221.3,619,1221.3,622.3L1221.3,622.3z"/>
			<path class="st14" d="M1331.7,661.1c0,3.4-2.3,6.1-5,6.1h-253.6c-2.8,0-5-2.7-5-6.1l0,0c0-3.4,2.3-6.1,5-6.1h253.6
				C1329.5,655,1331.7,657.7,1331.7,661.1L1331.7,661.1z"/>
			<path class="st14" d="M1331.7,684.5c0,3.4-2.3,6.1-5,6.1h-253.6c-2.8,0-5-2.7-5-6.1l0,0c0-3.4,2.3-6.1,5-6.1h253.6
				C1329.5,678.4,1331.7,681.1,1331.7,684.5L1331.7,684.5z"/>
			<path class="st14" d="M1331.7,708c0,3.4-2.3,6.1-5,6.1h-253.6c-2.8,0-5-2.7-5-6.1l0,0c0-3.4,2.3-6.1,5-6.1h253.6
				C1329.5,701.8,1331.7,704.6,1331.7,708L1331.7,708z"/>
			<path class="st14" d="M1331.7,731.4c0,3.4-2.3,6.1-5,6.1h-253.6c-2.8,0-5-2.7-5-6.1l0,0c0-3.4,2.3-6.1,5-6.1h253.6
				C1329.5,725.3,1331.7,728,1331.7,731.4L1331.7,731.4z"/>
			<path class="st12" d="M1116,831.8c0,28.1-22.8,50.8-50.8,50.8c-28.1,0-50.8-22.8-50.8-50.8c0-28.1,22.8-50.8,50.8-50.8
				C1093.3,780.9,1116,803.7,1116,831.8z"/>
			<path class="st8" d="M1250.7,831.8c0,28.1-22.8,50.8-50.8,50.8s-50.8-22.8-50.8-50.8c0-28.1,22.8-50.8,50.8-50.8
				S1250.7,803.7,1250.7,831.8z"/>
			<path class="st5" d="M1385.4,831.8c0,28.1-22.8,50.8-50.8,50.8c-28.1,0-50.8-22.8-50.8-50.8c0-28.1,22.8-50.8,50.8-50.8
				C1362.6,780.9,1385.4,803.7,1385.4,831.8z"/>
		</g>
		<g>
			<path class="st15" d="M1529.4,684.5c0,37-30,67-67,67s-67-30-67-67c0-37,30-67,67-67S1529.4,647.5,1529.4,684.5z"/>
			<polygon class="st4" points="1444.7,648.9 1444.7,720.1 1498.6,684.5 			"/>
		</g>
		<g>
			<polygon class="st16" points="1963.9,858.8 1914.3,869.6 1989.8,902.5 			"/>
			
				<rect x="1916.7" y="868.1" transform="matrix(0.3983 -0.9173 0.9173 0.3983 334.7484 2327.7539)" class="st17" width="49.9" height="81.3"/>
			
				<rect x="1914.3" y="876.7" transform="matrix(0.3983 -0.9173 0.9173 0.3983 339.0073 2327.019)" class="st4" width="57.8" height="56.9"/>
			<polygon class="st18" points="1941.6,909.2 1894.1,916.2 1914.3,869.6 			"/>
			<polygon class="st18" points="1942.3,909.5 1969.5,949 1989.8,902.4 			"/>
			<polygon class="st9" points="1944.2,904.1 1894.1,916 1969.6,948.8 			"/>
			<polygon class="st19" points="1943.7,905.1 1894.1,916 1969.6,948.8 			"/>
		</g>
		<g>
			<path class="st20" d="M612.4,163c0,1.4-0.5,2.6-1.5,3.6l-38.5,38.5l-7.2,7.2c-1,1-2.2,1.5-3.6,1.5c-1.4,0-2.6-0.5-3.6-1.5
				l-7.2-7.2l-19.2-19.2c-1-1-1.5-2.2-1.5-3.6c0-1.4,0.5-2.6,1.5-3.6l7.2-7.2c1-1,2.2-1.5,3.6-1.5c1.4,0,2.6,0.5,3.6,1.5l15.6,15.7
				l34.9-34.9c1-1,2.2-1.5,3.6-1.5c1.4,0,2.6,0.5,3.6,1.5l7.2,7.2C611.9,160.4,612.4,161.6,612.4,163z"/>
		</g>
		<g>
			<path class="st20" d="M1318.3,221.9c-1.3-0.1-2.6-0.2-3.9-0.3c-0.4,0-0.9,0-1.5,0c-0.4,0-0.8,0-1.2,0c-0.4,0-0.9,0-1.3,0
				c-19.5,0.1-36.5,6.8-50.4,19.8c-1.9,1.8-2.2,4.1-0.7,5.7c0.7,0.8,1.7,1,2.4,1c1.1,0,2.3-0.5,3.3-1.4c7.8-7.3,15.9-12.1,24.8-14.7
				c7.4-2.2,14.7-3.3,21.6-3.3c16.3,0,31.2,6,44.4,18c1,0.9,2.2,1.4,3.4,1.4c0.9,0,1.7-0.3,2.3-1c0.7-0.7,1-1.5,1-2.4
				c0-1.2-0.7-2.4-1.8-3.5C1349,230.3,1334.7,223.7,1318.3,221.9z"/>
			<path class="st20" d="M1346.1,258.8c-10.3-9.7-22.2-14.6-36.6-14.7c-12.6,0.3-24,4.9-33.7,13.6c-2.7,2.4-2.9,3.8-2.3,5.5
				c0.5,1.3,1.6,2.1,3.1,2.1c1.2,0,2.4-0.5,3.5-1.5c3.8-3.4,7.3-5.9,10.9-7.7c6-3.1,12.7-4.7,19.4-4.7c11.2,0,21.8,4.4,30,12.3
				c1.2,1.1,2.5,1.8,3.7,1.8c1.4,0,2.4-0.8,3-2.2C1347.7,262,1347.9,260.5,1346.1,258.8z"/>
			<path class="st20" d="M1311.5,266.8c-9.1,0.1-16,2.8-21.9,8.7c-1.7,1.7-1.9,4.1-0.5,5.5c0.7,0.7,1.5,1.1,2.5,1.1
				c1.1,0,2.2-0.5,3.1-1.4c4.6-4.4,10.1-6.7,15.7-6.7c5.7,0,11.2,2.4,15.9,6.9c0.8,0.8,1.8,1.2,2.8,1.2c0.6,0,1.5-0.2,2.4-0.9
				c1.4-1.3,1.5-3.5,0.2-4.9C1326.4,270.3,1319.4,267,1311.5,266.8z"/>
			<path class="st20" d="M1305.4,295.2c0,2.8,2.2,5.1,5,5.1c2.7,0,5-2.3,5-5.1c0-1.3-0.5-2.5-1.4-3.4c-1-1-2.2-1.5-3.6-1.5l0,0
				C1307.6,290.4,1305.4,292.6,1305.4,295.2z"/>
		</g>
		<path class="st21" d="M767.1,156.6c-1.4-8.9-5.6-16.3-12.3-22.2c-5.4-4.7-11.7-7.6-18.9-8.7c-0.9-0.1-1.7-0.2-2.6-0.3
			c-1.6,0-3.2,0-4.9,0c-1,0.1-2,0.3-3,0.4c-7.3,1.1-13.7,4.2-19.1,9.1c-6.1,5.5-10,12.3-11.5,20.3c-2,11.2,0.6,21.2,7.8,30
			c5.6,6.8,12.8,11.2,21.5,12.7c10.8,2,20.6-0.5,29.2-7.3c7.4-5.8,11.9-13.5,13.6-22.8c0.2-1.2,0.3-2.3,0.5-3.5c0-1.6,0-3.2,0-4.9
			C767.4,158.6,767.2,157.6,767.1,156.6z M729.4,148c0,4,0,7.9,0,11.9c0,0.5-0.1,0.7-0.6,0.7c-4.5,0-9,0-13.5,0c-0.1,0-0.2,0-0.5,0
			c0.1-1.5,0-2.9,0.2-4.3c0.5-3.3,1-6.5,1.5-9.8c0.1-0.4,0.2-0.6,0.6-0.5c3.9,0.8,7.9,1.2,11.9,1.4c0.1,0,0.2,0,0.3,0.1
			C729.4,147.6,729.4,147.8,729.4,148z M725,130.6c1.4-1.2,3.1-2,4.4-2.1c0,5.3,0,10.5,0,15.8c-2.3,0.1-9.3-0.6-11.9-1.3
			c0.7-1.6,1.3-3.2,2-4.8C720.8,135.3,722.5,132.6,725,130.6z M721.9,129.5c-3.4,3.7-5.5,8.2-7.2,12.9c-3-0.8-5.9-1.8-8.7-3.3
			C710.5,134.3,715.7,131.2,721.9,129.5z M703.9,141.6c3.4,1.3,6.6,2.6,9.9,3.8c-1.3,4.8-1.9,9.9-2.1,15.1c-4.8,0-9.7,0-14.6,0
			C697.6,153.4,699.8,147.1,703.9,141.6z M703.9,182.4c-4.1-5.4-6.4-11.8-6.7-18.9c4.9,0,9.7,0,14.6,0c0.1,5.1,0.8,10.2,2.1,15.1
			C710.6,179.8,707.3,181.1,703.9,182.4z M706.1,184.9c2.8-1.5,5.7-2.5,8.7-3.3c1.6,4.7,3.7,9.1,7.2,12.8
			C718.3,194.3,709.5,189,706.1,184.9z M729.3,195.5c-0.6-0.2-1.2-0.4-1.8-0.6c-1.9-0.8-3.3-2.1-4.6-3.6c-2.6-3.1-4.2-6.6-5.4-10.4
			c3.9-0.8,7.8-1.2,11.8-1.3C729.3,184.9,729.3,190.1,729.3,195.5z M729.4,176.1c0,0.1,0,0.3-0.1,0.5c-1.4,0.1-2.8,0.1-4.1,0.3
			c-2.6,0.3-5.2,0.7-7.8,1.1c-0.6,0.1-0.8,0-0.9-0.6c-1-4.4-1.6-8.8-1.7-13.4c0-0.1,0-0.3,0-0.5c0.2,0,0.4,0,0.6,0
			c4.4,0,8.9,0,13.3,0c0.4,0,0.7,0,0.7,0.6C729.4,168.1,729.4,172.1,729.4,176.1z M755.7,139.1c-2.8,1.5-5.7,2.5-8.6,3.3
			c-1-2.3-2-4.5-3.1-6.7c-1.1-2.2-2.6-4.2-4.2-6.1C746,131.2,751.3,134.3,755.7,139.1z M746.9,159.9c0,0.2,0,0.3,0,0.6
			c-4.9,0-9.6,0-14.5,0c0-4.4,0-8.7,0-13.1c1.3-0.1,2.7-0.1,4-0.3c2.6-0.3,5.3-0.7,7.9-1.1c0.5-0.1,0.7,0,0.9,0.6
			C746.3,151,746.8,155.4,746.9,159.9z M732.4,128.4c0.6,0.2,1.2,0.4,1.8,0.6c2.2,0.9,3.8,2.5,5.3,4.4c2.2,2.9,3.6,6.1,4.8,9.6
			c-2.7,0.7-9.6,1.5-11.8,1.3C732.4,139.1,732.4,133.8,732.4,128.4z M732.3,164.1c0-0.4,0-0.7,0.6-0.7c4.5,0,9,0,13.5,0
			c0.1,0,0.3,0,0.5,0.1c-0.1,1.4,0,2.8-0.2,4.2c-0.5,3.3-1,6.5-1.5,9.8c-0.1,0.4-0.2,0.6-0.7,0.5c-3.8-0.8-7.6-1.2-11.4-1.3
			c-0.2,0-0.5,0-0.7-0.1c0-0.2,0-0.4,0-0.6C732.3,172,732.3,168.1,732.3,164.1z M737.2,193c-1.3,1.1-2.7,2-4.3,2.4
			c-0.1,0-0.3,0-0.5,0.1c0-5.3,0-10.6,0-15.9c4,0.1,7.9,0.5,11.9,1.4c-0.7,1.6-1.3,3.2-2,4.8C741.1,188.4,739.5,191,737.2,193z
			 M739.8,194.4c3.4-3.7,5.5-8.1,7.2-12.9c3,0.8,5.9,1.8,8.7,3.3C751.3,189.6,746,192.8,739.8,194.4z M757.8,182.4
			c-3.4-1.3-6.6-2.6-9.9-3.8c1.3-4.8,1.9-9.9,2.1-15c4.8,0,9.7,0,14.6,0C764.2,170.6,761.9,176.9,757.8,182.4z M749.9,160.5
			c-0.2-5.1-0.8-10.2-2.1-15.1c3.3-1.3,6.6-2.5,10-3.8c4.1,5.5,6.4,11.8,6.7,18.9C759.6,160.5,754.8,160.5,749.9,160.5z"/>
		<g>
			<polygon class="st22" points="1589.6,1074.5 1649.1,1074.5 1640.3,1027 1643.1,974.2 1596,974.2 1599.8,1025.1 			"/>
			<path class="st23" d="M1612.5,975.4c0,4,3.2,7.2,7.2,7.2l0,0c3.9,0,7.1-3.2,7.1-7.2v-8.6c0-3.9-3.2-7.1-7.1-7.1l0,0
				c-4,0-7.2,3.2-7.2,7.1V975.4z"/>
			<path class="st23" d="M1585.2,946c0,14.4,11.6,26,26,26c14.4,0,26-11.6,26-26c0-14.4-11.7-26.6-26-26
				C1581.1,921.3,1601.3,949,1585.2,946z"/>
			<rect x="1589.6" y="1074.5" class="st15" width="59.4" height="20.9"/>
			<polygon class="st15" points="1639.1,1152.7 1624.8,1152.7 1623.5,1095.4 1648.8,1095.4 			"/>
			<polygon class="st15" points="1678.9,1210.6 1671.3,1216.2 1624.8,1152.8 1636.3,1144.3 			"/>
			<path class="st4" d="M1591.6,957.8h11.2C1603.2,962.8,1595.9,968.1,1591.6,957.8z"/>
			<polygon class="st15" points="1605.6,1152.7 1591.3,1152.7 1590,1095.4 1615.3,1095.4 			"/>
			<polygon class="st15" points="1600.8,1231.4 1591.3,1231.4 1591.3,1152.7 1605.6,1152.7 			"/>
			<path class="st10" d="M1591.3,1231.4c-8.2,11.4-26.1,7.5-26.1,18.9c7.1,0,18.2,0,26.1,0c0,0,0-0.1,0-0.1c0,0,1.4-7.9,3.1-7.9
				c1.7,0,3,1.3,3,3l-0.1,5c2.1,0,3.4,0,3.4,0v-19.4L1591.3,1231.4z"/>
			<path class="st22" d="M1558.8,1010.3c-3.1-4.7-5.1-7.4,1.8-13.1c9.7-8,21.9-14,27.3-17.9c5.4-3.9,11.2-9.2,17.4,0.9
				c3.7,5.9-0.3,11.8-4.9,14.8l-29.4,17.4C1566.5,1015.3,1562,1015,1558.8,1010.3L1558.8,1010.3z"/>
			<polygon class="st22" points="1557.4,950 1573.9,1008.5 1556.1,1004.8 1551.7,951.4 			"/>
			<path class="st23" d="M1561.9,936.6c2.3-5.6-14.5-8.4-17-2.9c-2.6,5.5-1.9,13.9,3.6,16.4c5.5,2.6,9.8,0.6,14-3.9
				C1567.9,940.3,1559.6,942.6,1561.9,936.6z"/>
			<path class="st24" d="M1599.8,915.1c13.2-4.2,22.4-5.6,31.9-3.8c10.3,3.6,18,12.9,18.9,24.4c1.3,15.1-9.5,28.5-24.4,30.6
				c0.3-2,0.4-4.1,0.2-6.2c-0.1-1.3-0.3-2.6-0.6-3.8c1.1,0.5,2.4,0.7,3.7,0.6c4.3-0.4,7.4-4.1,7.1-8.4c-0.4-4.3-4.1-7.4-8.4-7.1
				c-3.3,0.3-5.9,2.6-6.8,5.6c-1-2.5-3.5-3.8-6.3-5.1c-5-2.4-11.3-5-13.1-14.7c-10.8,2.2-8.7,9.3-10.7,10.5
				C1587.3,929,1590.4,918,1599.8,915.1z"/>
			<path class="st24" d="M1641.7,928.4c9.2,14,20.3,1.6,24.6,17.2c6-7.3,7.8-18,4.8-25.5c-2.9-7.2-8-10.8-15.9-11.6
				C1638.7,906.9,1637.2,921.6,1641.7,928.4z"/>
			<path class="st10" d="M1671.3,1216.2c0.1,14-16.6,21.5-9.9,30.7c5.7-4.2,14.7-10.8,21.1-15.4c0,0-0.1-0.1-0.1-0.1
				c0,0-3.5-7.2-2.2-8.2c1.3-1,3.2-0.7,4.2,0.6l2.9,4.1c1.7-1.3,2.8-2,2.8-2l-11.5-15.7L1671.3,1216.2z"/>
			<g>
				<path class="st25" d="M1597.7,925.3c-0.7-2.4-5.9-0.2-5.9-2.8c0-21.9,16.7-31.4,31.4-31.4c14.7,0,26.6,11.9,26.6,26.6
					c0,2.6-0.4,5.2-1.1,7.6H1597.7z"/>
				<rect x="1591.9" y="917.7" class="st6" width="57.4" height="4.7"/>
				<path class="st25" d="M1580.5,922.5c0,1.7,1.4,3,3,3h65.8c1.7,0,3-1.4,3-3l0,0c0-1.7-1.4-3-3-3h-65.8
					C1581.9,919.5,1580.5,920.8,1580.5,922.5L1580.5,922.5z"/>
			</g>
			<g>
				<polygon class="st4" points="1573.1,991 1486.7,1012.3 1462.7,914.8 1519,900.9 1555.4,919.2 				"/>
				<g>
					<path class="st8" d="M1551.3,913c1.3,0.8,2.6,2,3.8,3.7c1.2,1.7,2,3.3,2.4,4.8L1574,988c0.4,1.5,0.2,3-0.6,4.3
						c-0.8,1.3-2,2.2-3.5,2.6l-77.6,19.1c-1.5,0.4-3,0.2-4.3-0.6c-1.3-0.8-2.2-2-2.6-3.5l-22.8-92.3c-0.4-1.5-0.2-3,0.6-4.3
						c0.8-1.3,2-2.2,3.5-2.6l51.7-12.8c1.5-0.4,3.3-0.4,5.4-0.1c2,0.3,3.7,0.9,5.1,1.7L1551.3,913z M1566.1,988l-14.6-59.1l-24,5.9
						c-1.5,0.4-3,0.2-4.3-0.6c-1.3-0.8-2.2-2-2.6-3.5l-5.9-24l-44.3,10.9l21.9,88.6L1566.1,988z M1508.7,959.5c-1.6,2.7-4,4.4-7,5.2
						c-3.1,0.8-6,0.3-8.6-1.3c-2.7-1.6-4.4-4-5.2-7.1c-0.8-3.1-0.3-6,1.3-8.6c1.6-2.7,4-4.4,7-5.2c3.1-0.8,6-0.3,8.6,1.3
						c2.7,1.6,4.4,4,5.2,7C1510.7,954,1510.3,956.8,1508.7,959.5z M1552.4,963.9l4.6,18.5l-59.1,14.6l-2.7-11.1l8.3-13.8l9.2,5.6
						l16.7-27.6L1552.4,963.9z M1522.2,905.3l5.4,21.7l21.7-5.4c-0.7-1-1.3-1.7-1.9-2.1l-22.5-13.6
						C1524.3,905.6,1523.4,905.4,1522.2,905.3z"/>
				</g>
			</g>
			<path class="st23" d="M1547.7,996.5c-3.9-4.7-14.3,8.7-10.7,13.6c3.6,4.9,11.3,8.3,16.2,4.7c4.9-3.6,5.2-8.3,3.2-14.1
				C1553.8,993,1551.9,1001.4,1547.7,996.5z"/>
			<path class="st6" d="M1598.7,1030.3c0,0,26.9,20,32.3,14.7c5.3-5.3,9.3-18.1,9.3-18.1l2.1-39.5c0,0-20.9,25.2-24.1,28.7
				c-3.1,3.5-19.2,0-19.2,0L1598.7,1030.3z"/>
			<path class="st22" d="M1621.2,1039.8c-5.1-2.4-8.2-3.7-4.4-14.2c5.4-14.9,14.4-34.6,17.7-42.3c3.3-7.8,6.2-12.1,16.7-6.7
				c6.2,3.2,5.1,11.9,2.2,18.1l-19.8,38.3C1630.7,1039.3,1626.3,1042.2,1621.2,1039.8L1621.2,1039.8z"/>
			<polygon class="st22" points="1557.4,1006.8 1628.1,1022.8 1623.6,1040.7 1555.8,1012.5 			"/>
		</g>
		<g>
			<polygon class="st26" points="873.1,756.3 816,756.3 813.6,663 868.5,663 			"/>
			<path class="st23" d="M851.1,664.1c0,3.8-3.1,6.9-6.9,6.9l0,0c-3.8,0-6.9-3.1-6.9-6.9v-8.2c0-3.8,3.1-6.9,6.9-6.9l0,0
				c3.8,0,6.9,3.1,6.9,6.9V664.1z"/>
			<path class="st23" d="M877.3,636c0,13.8-11.2,25-25,25c-13.8,0-25-11.2-25-25c0-13.8,11.2-25.6,25-25
				C881.3,612.2,861.9,638.8,877.3,636z"/>
			<path class="st26" d="M909,652.1c-3.3-4.3-8.7-4.6-17.8,0.9c-12.8,7.9-33.5,11.7-33.5,11.7c-16,6.8-9.1,22.3-1.9,27.1
				c4.4,3,12.6,4.2,17.8,0.2l37.1-28.9C912,661.3,912.3,656.3,909,652.1L909,652.1z"/>
			<rect x="816" y="756.3" class="st24" width="57.1" height="23.3"/>
			<path class="st27" d="M896.9,928.4c-11.5,0-34.2,0-34.2,0v-18.7l9.1,0.5C879.7,921.2,894.3,906,896.9,928.4z"/>
			<polygon class="st24" points="858.1,834.6 871.8,834.6 873.1,779.5 848.8,779.5 			"/>
			<polygon class="st24" points="862.8,910.2 871.8,910.2 871.8,834.6 858.1,834.6 			"/>
			<rect x="862.7" y="925.8" class="st27" width="34.2" height="2.6"/>
			<path class="st27" d="M830.7,928.4c-11.5,0-34.2,0-34.2,0v-18.7l9.1,0.5C813.4,921.2,828,906,830.7,928.4z"/>
			<rect x="796.5" y="925.8" class="st27" width="34.2" height="2.6"/>
			<polygon class="st24" points="826.7,840 840,841.8 840.3,779.5 816,779.5 			"/>
			<polygon class="st24" points="796.5,909.7 805.6,910.2 840,841.8 827.4,836.5 			"/>
			<path class="st4" d="M866.3,647.6h-10.8C855.1,652.4,862.2,657.5,866.3,647.6z"/>
			<path class="st28" d="M874,605.1c-4.3,2.1-5.1,3.7-14,1.7c-12.6-2.8-30.2-2.6-29.9-1c-9.2,4.1-15.7,13.4-15.7,24.2
				c0,14.1,11.1,25.7,25,26.4c-0.5-1.8-0.7-3.7-0.7-5.7c0-1.2,0.1-2.4,0.3-3.6c-1,0.5-2.2,0.8-3.4,0.8c-4,0-7.2-3.2-7.2-7.2
				c0-4,3.2-7.2,7.2-7.2c3.1,0,5.7,1.9,6.7,4.6c2-6.5,0.7-11.3,0.7-11.3c7.4,0.8,13.8,2.1,24-1C876.4,622.8,880.8,615.1,874,605.1z"
				/>
			<polygon class="st9" points="835.1,696.7 815.2,726.9 835.1,709.7 848.8,710.6 857.3,705 			"/>
			<path class="st26" d="M808,730.1c5.4,0.3,9.2-3.6,10.9-14.1c2.4-14.9,12.9-33,12.9-33c5.2-16.6-9.7-22.2-18.1-19.9
				c-5.2,1.4-12.7,7.7-13,14.3l-1.9,40.4C798.4,724.3,802.6,729.9,808,730.1L808,730.1z"/>
			<polygon class="st23" points="832.2,694.9 798.7,717.7 815.4,726.2 835.1,698.9 			"/>
			<g>
				<path class="st27" d="M838.6,704.5c0.7,1.8,2.8,2.7,4.6,2l12.7-5c1.8-0.7,2.7-2.8,2-4.6l-13.2-33.3c-0.7-1.8-2.8-2.7-4.6-2
					l-12.7,5c-1.8,0.7-2.7,2.8-2,4.7L838.6,704.5z"/>
				<path class="st27" d="M834.6,669.7c0.3,0.7,1.1,1.1,1.9,0.8c0.7-0.3,1.1-1.1,0.8-1.8c-0.3-0.7-1.1-1.1-1.8-0.8
					C834.7,668.1,834.3,669,834.6,669.7z"/>
				<path class="st27" d="M836.4,671.7c0.1,0.3,0.4,0.4,0.7,0.3c0.3-0.1,0.4-0.4,0.3-0.7c-0.1-0.3-0.4-0.4-0.7-0.3
					C836.4,671.1,836.3,671.5,836.4,671.7z"/>
			</g>
			<path class="st23" d="M837.4,683.4c1.8-5.3,15.2,2.7,13.8,8.1c-1.5,5.4-6.9,10.9-12.3,9.5c-5.4-1.5-7.3-5.4-7.5-11.1
				C831,682.4,835.6,689,837.4,683.4z"/>
			<polygon class="st23" points="941.6,628.8 896,650.5 905.2,667.4 945.3,635.8 			"/>
			<path class="st23" d="M958.5,614.1c1.9-0.8,3.2,0.1,3.9,1.8c0.4,1-5.5,4.2-5.4,5.5c0.2,2.6,3.4,5.1,2.8,7.4
				c-1.4,5.4-5.2,10.5-10.7,9.1c-5.4-1.4-7.4-5.3-7.7-11C941,619.4,953.8,616.1,958.5,614.1z"/>
			<g>
				<path class="st25" d="M872,619.7c0.8-2.7,6.7-0.2,6.7-3.2c0-25-19-35.7-35.7-35.7c-16.7,0-30.3,13.5-30.3,30.3
					c0,3,0.4,5.9,1.3,8.6H872z"/>
				<rect x="813.2" y="611" class="st6" width="65.4" height="5.4"/>
				<path class="st25" d="M891.6,616.4c0,1.9-1.5,3.4-3.4,3.4h-75c-1.9,0-3.4-1.5-3.4-3.4l0,0c0-1.9,1.5-3.4,3.4-3.4h75
					C890,613,891.6,614.5,891.6,616.4L891.6,616.4z"/>
			</g>
		</g>
		<path class="st5" d="M1831,214.9h-42.3v-47.4c0-9.5-7.7-17.3-17.3-17.3h-19.8c-9.5,0-17.3,7.7-17.3,17.3v47.4h-19.8l-264.9-103.3
			l-0.2-0.8l-1,0.3l-18-7c0.5-2.4-0.6-4.9-2.8-6.1l-0.5-0.3c-2.7-1.5-6.2-0.5-7.7,2.2l-20.3,36.4c-1.5,2.7-0.5,6.2,2.2,7.7l0.5,0.3
			c1.3,0.8,2.9,0.9,4.3,0.5l16.4,12.4l0.4,1.4l1.1-0.3v332.9h-13v78.3h15.6c-0.2,0.4-0.4,0.9-0.4,1.4v27.7
			c-13.8,1.5-24.6,13.2-24.6,27.4c0,15.2,12.4,27.6,27.6,27.6c15.2,0,27.6-12.4,27.6-27.6c0-1.6-1.3-3-3-3c-1.6,0-3,1.3-3,3
			c0,12-9.7,21.7-21.7,21.7c-11.9,0-21.7-9.7-21.7-21.7c0-11.9,9.7-21.7,21.7-21.7c1.6,0,3-1.3,3-3c0-0.1,0-0.1,0-0.2
			c0-0.1,0-0.1,0-0.2v-30.1c0-0.5-0.2-1-0.4-1.4h15.5v-78.3h-12.9V166l199.3,150.2v0.5c0,9.5,7.7,17.3,17.3,17.3l197.5,0V232.1
			C1848.2,222.6,1840.5,214.9,1831,214.9z M1629.2,191.7l-52.9,15l-11.4-40.1L1629.2,191.7z M1540.9,157.3l-35.3,10l-7.6-26.8
			L1540.9,157.3z M1481.2,134l-23.4,6.6l-5-17.7L1481.2,134z M1427.5,149.3l-15.5-11.7l14-25.1l17.9,7l6.6,23.3L1427.5,149.3z
			 M1435.1,155l17.4-4.9l6.5,23L1435.1,155z M1459.9,148l29.8-8.5l8.5,29.9l-29.8,8.5L1459.9,148z M1473.9,184.3l26.4-7.5l9.9,34.9
			L1473.9,184.3z M1520.4,219.3l-12.7-44.6l45-12.8l3.2,1.2l13,45.7l-45.4,12.9L1520.4,219.3z M1531.2,227.5l39.8-11.3l14.9,52.5
			L1531.2,227.5z M1633.4,304.5l-35.7-26.9l35.7-15.9V304.5z M1633.4,232.1v21.1l-39,17.4l-16-56.5l56.5-16l3,22.5
			C1635.1,223.6,1633.4,227.7,1633.4,232.1z M1650.7,214.9c-2,0-3.9,0.4-5.7,1l-2.6-19l46.3,18H1650.7z"/>
		<g>
			<path class="st5" d="M872.4,286.7l11.3,27c0.3,0.7,0.3,1.5,0,2.2c-0.3,0.8-0.8,1.3-1.6,1.6l-12.3,5.1c-0.7,0.3-1.5,0.3-2.2,0
				c-0.8-0.3-1.3-0.8-1.6-1.6l-11.3-27c-0.3-0.7-0.3-1.5,0-2.2c0.3-0.8,0.8-1.3,1.6-1.6l12.3-5.1c0.7-0.3,1.5-0.3,2.3,0
				C871.6,285.5,872.1,286,872.4,286.7z M874.6,311.2c-0.3-0.7-0.8-1.3-1.6-1.6c-0.8-0.3-1.5-0.3-2.3,0c-0.8,0.3-1.3,0.9-1.6,1.6
				c-0.3,0.8-0.3,1.5,0,2.2c0.3,0.8,0.8,1.3,1.6,1.6c0.7,0.3,1.5,0.3,2.3,0c0.7-0.3,1.3-0.8,1.6-1.6
				C874.9,312.7,874.9,312,874.6,311.2z M922.8,265.7c1,2.4,1.1,4.8,0.3,7.3c0.9,1.1,1.6,2,2,2.9c1,2.1,1.2,4.3,0.6,6.5
				c1.1,1.4,1.8,3,2.1,4.9c0.2,1.8,0,3.4-0.6,4.9c1.6,3.1,1.9,5.9,1.1,8.5c-0.9,2.9-3.3,5.2-7,6.8l-1.5,0.6l-3.2,1.3l-0.7,0.3
				c-1.9,0.8-4,1.4-6.4,1.9c-2.4,0.5-4.3,0.8-5.7,0.9c-1.4,0.1-3.3,0.3-5.8,0.5c-4,0.2-6.5,0.6-7.5,1c-0.7,0.3-1.5,0.3-2.3,0
				c-0.8-0.3-1.3-0.8-1.6-1.5l-11.3-27.1c-0.3-0.7-0.3-1.4,0-2.2c0.3-0.7,0.8-1.3,1.5-1.6c0.7-0.3,1.4-1.6,2.2-3.8
				c0.8-2.2,1.5-4.5,2.2-6.9c0.9-3.3,1.6-5.5,2.2-6.9c0.3-0.7,0.5-1.6,0.5-2.6c0-1,0-1.8-0.1-2.4c-0.1-0.6-0.3-1.5-0.5-2.8
				c-0.3-1.2-0.4-2.1-0.5-2.8c-0.1-0.7-0.1-1.5-0.1-2.5c0-1,0.2-1.9,0.6-2.7c0.3-0.8,0.8-1.3,1.6-1.6c1.3-0.5,2.5-0.9,3.7-1
				c1.2-0.1,2.2-0.1,3,0c0.8,0.2,1.7,0.5,2.4,1c0.8,0.5,1.4,1,1.8,1.5c0.4,0.5,0.9,1.1,1.4,1.9c0.5,0.8,0.8,1.4,1,1.8
				c0.2,0.4,0.4,1,0.7,1.6c0.4,1.1,0.8,2.2,0.9,3.4c0.2,1.2,0.3,2.1,0.3,2.9c0,0.7-0.1,1.7-0.2,2.9c0,0.2-0.1,0.5-0.1,0.9
				c-0.1,0.4-0.1,0.8-0.1,1.1c0,0.3,0,0.7,0.1,1.2l11.8-4.9c2.2-0.9,4.5-0.9,6.8,0C920.3,262,921.9,263.5,922.8,265.7z"/>
		</g>
		<g>
			<g>
				<polygon class="st29" points="1738.4,183 1789.5,183 1791.7,99.6 1738.6,99.6 				"/>
				<path class="st23" d="M1758.9,100.5c0,3.4,2.8,6.2,6.2,6.2l0,0c3.4,0,6.2-2.8,6.2-6.2v-7.4c0-3.4-2.8-6.2-6.2-6.2l0,0
					c-3.4,0-6.2,2.8-6.2,6.2V100.5z"/>
				<path class="st20" d="M1711.3,312.7c12.9-1.6,38.3-4.7,38.3-4.7L1747,287l-10.1,1.8C1729.6,302.2,1711.2,287.2,1711.3,312.7z"/>
				<path class="st23" d="M1735.4,75.3c0,12.4,10,22.4,22.4,22.4c12.4,0,22.4-10,22.4-22.4s-10-22.9-22.4-22.4
					C1731.8,54,1749.3,77.9,1735.4,75.3z"/>
				<path class="st30" d="M1750.5,49.5c11.3-2.5,27.1-2.3,26.8-0.9c8.3,3.7,14,12,14,21.6c0,12.7-9.9,23-22.4,23.7
					c0.4-1.6,0.6-3.3,0.6-5.1c0-1.1-0.1-2.2-0.2-3.2c0.9,0.5,1.9,0.8,3,0.8c3.6,0,6.5-2.9,6.5-6.5c0-3.6-2.9-6.5-6.5-6.5
					c-2.8,0-5.1,1.7-6,4.2c-0.7-2.1-2.6-3.4-4.9-4.7c-4-2.3-9-5-9.9-13.1c-9.2,1-7.8,7.1-9.6,8C1739.2,60.1,1742.5,51.2,1750.5,49.5
					z"/>
				<path class="st29" d="M1815.1,164.8c-4.6-2.8-11.3-10.1-15.2-18.8c-5.6-12.3-19-25.4-19-25.4c-8.4-13.1,4.4-21.1,12.2-21.1
					c4.8,0,11.5,3.2,13.3,8.8l13.3,42.8C1824.5,163.5,1815.1,164.8,1815.1,164.8z"/>
				<path class="st29" d="M1721.9,155c-4-2.8-4.6-7.6,0-16c6.4-11.8,8.8-30.5,8.8-30.5c5.4-14.6,19.5-9.2,24.2-3
					c2.9,3.8,4.4,11,1,15.9l-20.7,29.7C1731.8,156.1,1725.9,157.8,1721.9,155L1721.9,155z"/>
				<rect x="1726.4" y="183" class="st31" width="64.5" height="26.3"/>
				<polygon class="st31" points="1728.1,200.1 1729.3,215.5 1791.5,211.9 1789.2,184.5 				"/>
				<polygon class="st31" points="1736.6,288.9 1746.7,287.6 1736.3,202.9 1721,204.8 				"/>
				<path class="st20" d="M1648.8,285.3c12.9,1.4,38.4,4,38.4,4l2.2-21l-10.2-0.5C1669,279.2,1654.4,260.4,1648.8,285.3z"/>
				<polygon class="st31" points="1690.7,198.9 1688.1,183.8 1752.9,182.8 1755.2,211.7 				"/>
				<polygon class="st31" points="1689.3,268.9 1679.1,267.8 1688.1,183 1703.5,184.6 				"/>
				<path class="st4" d="M1742.4,84.2h15.4C1758.5,91.1,1748.3,98.4,1742.4,84.2z"/>
				<polygon class="st9" points="1785.3,120.6 1781.8,170.1 1763.8,173.4 1757.8,182.2 1789.5,183 1790.8,133.8 1790.8,131.8 				
					"/>
				<polygon class="st29" points="1773.5,169.6 1815.6,147 1816,164.7 1773.5,177 				"/>
				<g>
					<path class="st4" d="M1756.7,130.6h-13.3h-6.5h-62.8c-0.6,0-1.2,0.5-1.2,1.2v3V183c0,0.6,0.5,1.2,1.2,1.2h82.6
						c0.6,0,1.2-0.5,1.2-1.2v-34.7v-16.5C1757.8,131.2,1757.3,130.6,1756.7,130.6z"/>
					<path class="st4" d="M1672.9,182.4v2.2c0,0.6,0.5,1.2,1.2,1.2h99.7c0.6,0,1.2-0.5,1.2-1.2v-2.2H1672.9z"/>
					<path class="st32" d="M1717.5,158.7c-4.2,0-7.6-3.4-7.6-7.6c0-1.3,0.3-2.5,0.9-3.5c-4.1,0.2-7.3,3.5-7.3,7.6
						c0,4.2,3.4,7.6,7.6,7.6c2.9,0,5.5-1.7,6.7-4.1C1717.7,158.7,1717.6,158.7,1717.5,158.7z"/>
				</g>
				<path class="st23" d="M1759.8,180.7c-2.9,5.1-3.1-3.5-1.8-9.2c1.3-5.7,6-4.6,11.7-3.3c5.7,1.3,5.5-0.2,6,5.6
					C1776.3,181.5,1762.7,175.4,1759.8,180.7z"/>
			</g>
			<g>
				<path class="st25" d="M1742.5,63.1c-0.7-2.2-5.4-0.1-5.4-2.6c0-20.1,15.3-28.8,28.8-28.8s24.4,10.9,24.4,24.4c0,2.4-0.4,4.8-1,7
					H1742.5z"/>
				<rect x="1737.2" y="56.1" class="st6" width="52.7" height="4.3"/>
				<path class="st25" d="M1726.8,60.5c0,1.5,1.2,2.8,2.8,2.8h60.4c1.5,0,2.8-1.2,2.8-2.8l0,0c0-1.5-1.2-2.8-2.8-2.8h-60.4
					C1728,57.7,1726.8,59,1726.8,60.5L1726.8,60.5z"/>
			</g>
		</g>
		<g>
			<path class="st33" d="M629.1,1167.2v31H528c-7.8,0-10.9,6.1-19.5,10.1c-8.6,4-23.3-6.2-28.4-0.2l-42.1,49.5l-0.6,0.8
				c0-0.3,0-0.9-0.1-1.6c0-0.7-0.1-1.2-0.1-1.6v-119.9c0-7.7,2.7-14.2,8.2-19.7c5.5-5.5,12.1-8.2,19.7-8.2h40
				c7.7,0,14.2,2.7,19.7,8.2c5.5,5.5,8.2,12.1,8.2,19.7v4h67.9c7.7,0,14.2,2.7,19.7,8.2C626.4,1153,629.1,1159.5,629.1,1167.2z"/>
			<path class="st10" d="M662.8,1195.5c0,2.6-1.3,5.3-3.9,8.2l-42,49.5c-3.6,4.2-8.6,7.8-15,10.8c-6.5,3-12.4,4.4-17.9,4.4H448.1
				c-2.8,0-5.4-0.5-7.6-1.6c-2.2-1.1-3.3-2.9-3.3-5.4c0-2.6,1.3-5.3,3.9-8.2l42-49.5c3.6-4.2,8.6-7.8,15.1-10.8
				c6.5-3,12.4-4.4,17.9-4.4H652c2.8,0,5.4,0.5,7.6,1.6C661.7,1191.2,662.8,1193,662.8,1195.5z"/>
		</g>
	</g>
</g>
</svg>
